<svg width="114" height="45" viewBox="0 0 114 45" fill="none" xmlns="http://www.w3.org/2000/svg">
<path d="M26.9957 27.277C25.5739 27.277 24.3459 26.9815 23.3118 26.3906C22.2839 25.7936 21.4929 24.9503 20.9389 23.8608C20.3849 22.7652 20.108 21.4756 20.108 19.9922C20.108 18.5334 20.3849 17.2531 20.9389 16.1513C21.4991 15.0433 22.2808 14.1816 23.2841 13.5661C24.2874 12.9444 25.4661 12.6335 26.8203 12.6335C27.6944 12.6335 28.5192 12.7751 29.2947 13.0582C30.0765 13.3352 30.7659 13.7661 31.3629 14.3509C31.9661 14.9356 32.4401 15.6804 32.7848 16.5852C33.1295 17.4839 33.3018 18.5549 33.3018 19.7983V20.8232H21.6776V18.5703H30.098C30.0919 17.9302 29.9534 17.3608 29.6825 16.8622C29.4117 16.3575 29.0331 15.9605 28.5469 15.6712C28.0668 15.3819 27.5066 15.2372 26.8665 15.2372C26.1832 15.2372 25.5831 15.4034 25.0661 15.7358C24.549 16.062 24.1458 16.4929 23.8565 17.0284C23.5734 17.5578 23.4287 18.1394 23.4226 18.7734V20.7401C23.4226 21.5649 23.5734 22.2727 23.875 22.8636C24.1766 23.4484 24.5982 23.8977 25.1399 24.2116C25.6816 24.5194 26.3156 24.6733 27.0419 24.6733C27.5282 24.6733 27.9683 24.6056 28.3622 24.4702C28.7562 24.3286 29.0978 24.1224 29.3871 23.8516C29.6764 23.5807 29.8949 23.2453 30.0426 22.8452L33.1634 23.196C32.9664 24.0208 32.5909 24.741 32.0369 25.3565C31.4891 25.9659 30.7874 26.4399 29.9318 26.7784C29.0762 27.1108 28.0975 27.277 26.9957 27.277ZM40.2104 27.2862C39.3117 27.2862 38.5023 27.1262 37.7821 26.8061C37.0681 26.4799 36.5018 25.9998 36.0833 25.3658C35.6709 24.7318 35.4647 23.95 35.4647 23.0206C35.4647 22.2204 35.6124 21.5587 35.9078 21.0355C36.2033 20.5123 36.6065 20.0938 37.1174 19.7798C37.6283 19.4659 38.2038 19.2289 38.8439 19.0689C39.4902 18.9027 40.1581 18.7827 40.8475 18.7088C41.6784 18.6226 42.3525 18.5457 42.8695 18.478C43.3865 18.4041 43.762 18.2933 43.9959 18.1456C44.236 17.9917 44.356 17.7547 44.356 17.4347V17.3793C44.356 16.6837 44.1498 16.1451 43.7374 15.7635C43.325 15.3819 42.731 15.1911 41.9554 15.1911C41.1368 15.1911 40.4874 15.3696 40.0073 15.7266C39.5333 16.0836 39.2132 16.5052 39.0471 16.9915L35.9263 16.5483C36.1725 15.6866 36.5788 14.9664 37.1451 14.3878C37.7114 13.803 38.4038 13.366 39.2225 13.0767C40.0411 12.7812 40.946 12.6335 41.937 12.6335C42.6202 12.6335 43.3004 12.7135 43.9775 12.8736C44.6545 13.0336 45.2731 13.2983 45.8333 13.6676C46.3934 14.0308 46.8427 14.5263 47.1813 15.1541C47.526 15.782 47.6983 16.5668 47.6983 17.5085V27H44.4853V25.0518H44.3745C44.1713 25.4458 43.8851 25.8151 43.5158 26.1598C43.1526 26.4983 42.6941 26.7723 42.1401 26.9815C41.5923 27.1847 40.949 27.2862 40.2104 27.2862ZM41.0783 24.8303C41.7492 24.8303 42.3309 24.6979 42.8233 24.4332C43.3158 24.1624 43.6943 23.8054 43.959 23.3622C44.2298 22.919 44.3652 22.4358 44.3652 21.9126V20.2415C44.2606 20.3277 44.0821 20.4077 43.8297 20.4815C43.5835 20.5554 43.3065 20.62 42.9988 20.6754C42.691 20.7308 42.3863 20.7801 42.0847 20.8232C41.7831 20.8662 41.5215 20.9032 41.2999 20.9339C40.8013 21.0017 40.3551 21.1125 39.9611 21.2663C39.5672 21.4202 39.2563 21.6357 39.0286 21.9126C38.8008 22.1835 38.687 22.5343 38.687 22.9652C38.687 23.5807 38.9116 24.0455 39.361 24.3594C39.8103 24.6733 40.3828 24.8303 41.0783 24.8303ZM56.3219 27.2493C55.2078 27.2493 54.2106 26.9631 53.3304 26.3906C52.4502 25.8182 51.7547 24.9872 51.2438 23.8977C50.7329 22.8082 50.4775 21.4848 50.4775 19.9276C50.4775 18.3518 50.736 17.0223 51.253 15.9389C51.7762 14.8494 52.481 14.0277 53.3674 13.4737C54.2537 12.9136 55.2417 12.6335 56.3311 12.6335C57.1621 12.6335 57.8453 12.7751 58.3809 13.0582C58.9164 13.3352 59.3411 13.6707 59.655 14.0646C59.9689 14.4524 60.2121 14.8187 60.3844 15.1634H60.5229V8.09091H63.8745V27H60.5875V24.7656H60.3844C60.2121 25.1103 59.9628 25.4766 59.6365 25.8643C59.3103 26.246 58.8794 26.5722 58.3439 26.843C57.8084 27.1139 57.1344 27.2493 56.3219 27.2493ZM57.2544 24.5071C57.9623 24.5071 58.5655 24.3163 59.0641 23.9347C59.5627 23.5469 59.9412 23.0083 60.1998 22.3189C60.4583 21.6295 60.5875 20.8262 60.5875 19.9091C60.5875 18.992 60.4583 18.1948 60.1998 17.5178C59.9474 16.8407 59.5719 16.3144 59.0733 15.9389C58.5809 15.5634 57.9746 15.3757 57.2544 15.3757C56.5096 15.3757 55.888 15.5696 55.3894 15.9574C54.8908 16.3452 54.5153 16.8807 54.263 17.5639C54.0106 18.2472 53.8844 19.0289 53.8844 19.9091C53.8844 20.7955 54.0106 21.5864 54.263 22.282C54.5215 22.9714 54.9 23.5161 55.3986 23.9162C55.9034 24.3101 56.522 24.5071 57.2544 24.5071ZM73.6037 32.6136C72.4034 32.6136 71.3724 32.4505 70.5107 32.1243C69.6489 31.8042 68.9564 31.3733 68.4332 30.8317C67.91 30.29 67.5469 29.6899 67.3438 29.0312L70.3537 28.3018C70.4891 28.5788 70.6861 28.8527 70.9446 29.1236C71.2031 29.4006 71.5509 29.6283 71.9879 29.8068C72.4311 29.9915 72.9882 30.0838 73.6591 30.0838C74.607 30.0838 75.3918 29.853 76.0135 29.3913C76.6352 28.9358 76.946 28.1849 76.946 27.1385V24.4517H76.7798C76.6075 24.7964 76.3551 25.1503 76.0227 25.5135C75.6965 25.8767 75.2625 26.1813 74.7209 26.4276C74.1854 26.6738 73.5114 26.7969 72.6989 26.7969C71.6094 26.7969 70.6214 26.5414 69.7351 26.0305C68.8549 25.5135 68.1532 24.7441 67.63 23.7223C67.1129 22.6944 66.8544 21.4079 66.8544 19.8629C66.8544 18.3056 67.1129 16.9915 67.63 15.9205C68.1532 14.8433 68.858 14.0277 69.7443 13.4737C70.6307 12.9136 71.6186 12.6335 72.7081 12.6335C73.5391 12.6335 74.2223 12.7751 74.7578 13.0582C75.2995 13.3352 75.7304 13.6707 76.0504 14.0646C76.3705 14.4524 76.6136 14.8187 76.7798 15.1634H76.9645V12.8182H80.2607V27.2308C80.2607 28.4434 79.9714 29.4467 79.3928 30.2408C78.8142 31.0348 78.0232 31.6288 77.0199 32.0227C76.0166 32.4167 74.8778 32.6136 73.6037 32.6136ZM73.6314 24.1747C74.3393 24.1747 74.9425 24.0024 75.4411 23.6577C75.9396 23.313 76.3182 22.8175 76.5767 22.1712C76.8352 21.5249 76.9645 20.7493 76.9645 19.8445C76.9645 18.9519 76.8352 18.1702 76.5767 17.4993C76.3243 16.8284 75.9489 16.3082 75.4503 15.9389C74.9579 15.5634 74.3516 15.3757 73.6314 15.3757C72.8866 15.3757 72.2649 15.5696 71.7663 15.9574C71.2678 16.3452 70.8923 16.8776 70.6399 17.5547C70.3875 18.2256 70.2614 18.9889 70.2614 19.8445C70.2614 20.7124 70.3875 21.4725 70.6399 22.125C70.8984 22.7713 71.277 23.276 71.7756 23.6392C72.2803 23.9962 72.8989 24.1747 73.6314 24.1747ZM89.9645 27.277C88.5426 27.277 87.3146 26.9815 86.2805 26.3906C85.2526 25.7936 84.4616 24.9503 83.9077 23.8608C83.3537 22.7652 83.0767 21.4756 83.0767 19.9922C83.0767 18.5334 83.3537 17.2531 83.9077 16.1513C84.4678 15.0433 85.2495 14.1816 86.2528 13.5661C87.2562 12.9444 88.4349 12.6335 89.7891 12.6335C90.6631 12.6335 91.4879 12.7751 92.2635 13.0582C93.0452 13.3352 93.7346 13.7661 94.3317 14.3509C94.9349 14.9356 95.4089 15.6804 95.7536 16.5852C96.0982 17.4839 96.2706 18.5549 96.2706 19.7983V20.8232H84.6463V18.5703H93.0668C93.0606 17.9302 92.9221 17.3608 92.6513 16.8622C92.3804 16.3575 92.0019 15.9605 91.5156 15.6712C91.0355 15.3819 90.4754 15.2372 89.8352 15.2372C89.152 15.2372 88.5518 15.4034 88.0348 15.7358C87.5178 16.062 87.1146 16.4929 86.8253 17.0284C86.5421 17.5578 86.3975 18.1394 86.3913 18.7734V20.7401C86.3913 21.5649 86.5421 22.2727 86.8438 22.8636C87.1454 23.4484 87.567 23.8977 88.1087 24.2116C88.6503 24.5194 89.2843 24.6733 90.0107 24.6733C90.4969 24.6733 90.937 24.6056 91.331 24.4702C91.7249 24.3286 92.0665 24.1224 92.3558 23.8516C92.6451 23.5807 92.8636 23.2453 93.0114 22.8452L96.1321 23.196C95.9351 24.0208 95.5597 24.741 95.0057 25.3565C94.4579 25.9659 93.7562 26.4399 92.9006 26.7784C92.045 27.1108 91.0663 27.277 89.9645 27.277ZM102.441 18.6903V27H99.0982V12.8182H102.293V15.228H102.459C102.785 14.4339 103.305 13.803 104.019 13.3352C104.74 12.8674 105.629 12.6335 106.688 12.6335C107.666 12.6335 108.519 12.8428 109.245 13.2614C109.978 13.6799 110.544 14.2862 110.944 15.0803C111.35 15.8743 111.55 16.8376 111.544 17.9702V27H108.202V18.4872C108.202 17.5393 107.956 16.7976 107.463 16.2621C106.977 15.7266 106.303 15.4588 105.441 15.4588C104.856 15.4588 104.336 15.5881 103.881 15.8466C103.432 16.099 103.078 16.4652 102.819 16.9453C102.567 17.4254 102.441 18.0071 102.441 18.6903Z" fill="#0C1618"/>
<rect width="8.57141" height="8.4375" rx="2" fill="#FFC600"/>
<rect y="9.28125" width="8.57141" height="8.4375" rx="2" fill="#FFC600"/>
<rect y="18.5625" width="8.57141" height="8.4375" rx="2" fill="#FFC600"/>
<rect x="9.42871" y="18.5625" width="8.57141" height="8.4375" rx="2" fill="#FFC600"/>
</svg>
