<svg width="80" height="40" viewBox="0 0 80 40" fill="none" xmlns="http://www.w3.org/2000/svg">
<path d="M24.7095 25.8588H29.7867V27.5224H27.3714V39.2112H24.7095V25.8588Z" fill="#0079C2"/>
<path d="M32.7965 34.1986L33.2527 27.5224H33.4055L33.8617 34.1986H32.7965ZM29.8486 39.2112H32.4549L32.7016 35.6652H33.9567L34.2044 39.2112H36.8096L35.4213 25.8588H31.2369L29.8486 39.2112Z" fill="#0079C2"/>
<path d="M40.622 34.5379V37.0551C40.622 37.3944 40.8839 37.4929 41.0367 37.4929C41.2878 37.4929 41.4624 37.285 41.4624 37.0551V33.9469C41.4624 33.531 41.386 33.0713 40.3928 33.0713H39.3123V31.6047H40.4365C41.1895 31.6047 41.4624 31.4296 41.4624 30.6087V27.9601C41.4624 27.7303 41.2878 27.5224 41.0367 27.5224C40.8839 27.5224 40.622 27.6099 40.622 27.9601V30.1381H37.959V28.2447C37.959 27.3144 38.0681 25.8588 39.9344 25.8588H42.1391C44.0054 25.8588 44.1254 27.3144 44.1254 28.2447V30.3789C44.1254 31.8345 43.1104 32.2285 42.3137 32.1957V32.3271C44.1036 32.2833 44.1254 33.6623 44.1254 34.1329V36.8253C44.1254 37.7666 44.0054 39.2112 42.1391 39.2112H39.9344C38.0681 39.2112 37.959 37.7666 37.959 36.8253V34.5379H40.622Z" fill="#0079C2"/>
<path d="M45.8716 25.8588H52.038V39.2112H49.375V27.5224H48.5346V39.2112H45.8716V25.8588Z" fill="#0079C2"/>
<path d="M56.4477 33.2026V27.5224H56.7969C57.0807 27.5224 57.2881 27.7631 57.2881 28.19V32.535C57.2881 32.9618 57.0807 33.2026 56.7969 33.2026H56.4477ZM53.7847 39.2112H56.4477V34.6692H57.9757C59.8311 34.6692 59.9511 33.2245 59.9511 32.2833V28.2447C59.9511 27.3144 59.8311 25.8588 57.9757 25.8588H53.7847V39.2112Z" fill="#0079C2"/>
<path d="M65.2007 37.0551C65.2007 37.285 65.0261 37.4929 64.775 37.4929C64.6222 37.4929 64.3603 37.3944 64.3603 37.0551V27.9601C64.3603 27.6099 64.6222 27.5224 64.775 27.5224C65.0261 27.5224 65.2007 27.7303 65.2007 27.9601V37.0551ZM61.6973 36.8253C61.6973 37.7666 61.8173 39.2112 63.6727 39.2112H65.8883C67.7436 39.2112 67.8637 37.7666 67.8637 36.8253V28.2447C67.8637 27.3144 67.7436 25.8588 65.8883 25.8588H63.6727C61.8173 25.8588 61.6973 27.3144 61.6973 28.2447V36.8253Z" fill="#0079C2"/>
<path d="M76.5294 25.8588H80V39.2112H77.337V30.8386H77.2388L75.8636 39.2112H73.7354L72.3711 30.8386H72.2729V39.2112H69.6099V25.8588H73.0696L74.805 35.2493L76.5294 25.8588Z" fill="#0079C2"/>
<path d="M21.2585 7.60312C20.4432 4.02423 18.4001 1.11295 18.1186 0.642334C17.6733 1.30996 16.0438 3.88195 15.2154 6.72756C14.3106 9.91245 14.1775 12.7362 14.4896 15.5052C14.7996 18.2851 15.9707 21.1417 15.9707 21.1417C16.5928 22.6301 17.5248 24.239 18.1316 25.027C19.0211 23.8669 21.0653 20.4084 21.7027 15.8992C22.0574 13.3819 22.0727 11.182 21.2585 7.60312ZM18.1186 24.1296C17.718 23.3744 17.0959 21.9406 17.037 19.7079C17.0217 17.5628 17.8806 15.7131 18.1316 15.3301C18.3554 15.7131 19.0954 17.322 19.1838 19.5219C19.2438 21.667 18.5322 23.3634 18.1186 24.1296ZM21.0217 13.6774C20.9911 15.0455 20.8285 16.4902 20.6211 17.3548C20.6954 15.8663 20.5175 13.7759 20.1769 12.1342C19.8364 10.5035 18.8727 7.7673 18.1033 6.50866C17.3928 7.71258 16.5175 10.0766 16.0591 12.1233C15.5985 14.1699 15.5854 16.6544 15.5854 17.3986C15.4632 16.7747 15.1576 14.5311 15.2438 12.2874C15.3158 10.4378 15.748 8.52248 15.9849 7.64691C16.8885 4.72469 17.9112 2.85315 18.1033 2.55764C18.2954 2.85315 19.5832 5.16247 20.2512 7.58124C20.9158 10 21.0501 12.3203 21.0217 13.6774Z" fill="#0079C2"/>
<path d="M19.5012 25.8588H13.3031V30.0287C13.3086 30.0287 13.313 30.0178 13.3184 30.0178C14.7787 28.5512 17.1471 28.5512 18.6085 30.0178C20.0688 31.4734 20.0688 33.8484 18.6085 35.315C18.6019 35.3259 18.5954 35.3259 18.5888 35.3368C18.5812 35.3368 18.5735 35.3478 18.567 35.3587C17.11 36.8034 15.2066 37.5258 13.3031 37.5258C11.391 37.5258 9.47886 36.8034 8.02074 35.3368C5.44938 32.7649 5.14489 28.7701 7.10505 25.8588C7.36917 25.4648 7.67367 25.0926 8.02074 24.7424C9.47886 23.2758 11.391 22.5535 13.3031 22.5535V12.5282C5.9558 12.5282 0 18.493 0 25.8588C0 33.2245 5.9558 39.2003 13.3031 39.2003C17.134 39.2003 20.585 37.5696 23.0123 34.9757V25.8588H19.5012Z" fill="#0079C2"/>
</svg>
