<svg width="130" height="15" viewBox="0 0 130 15" fill="none" xmlns="http://www.w3.org/2000/svg">
<path d="M6.21895 4.97453L4.56126 6.61814C4.34094 6.83659 3.98947 6.83659 3.77439 6.61814L0.165244 3.03966C-0.0550814 2.82121 -0.0550814 2.47272 0.165244 2.25947L1.82293 0.615866C2.04326 0.397413 2.39473 0.397413 2.60981 0.615866L6.21895 4.19434C6.43403 4.40759 6.43403 4.75608 6.21895 4.97453ZM6.84321 5.59348L0.23344 12.1419C0.0131148 12.3603 0.0131148 12.7088 0.23344 12.9221L1.85965 14.5345C2.07998 14.7529 2.43145 14.7529 2.64653 14.5345L9.2563 7.98607C9.47662 7.76762 9.47662 7.41913 9.2563 7.20588L7.63008 5.59348C7.415 5.37503 7.05829 5.37503 6.84321 5.59348Z" fill="#007BFB"/>
<path d="M57.2767 0.969482H61.8091L65.4603 10.5606L69.0851 0.969482H73.4549V13.7594H70.5487V3.98102L66.7612 13.7594H63.7763L59.9888 4.03303V13.7594H57.2715V0.969482H57.2767Z" fill="#007BFB"/>
<path d="M92.4344 0.969482H102.433V13.7594H99.3379V3.66374H95.2619C95.2357 5.46338 95.1832 7.86637 95.1308 9.2135C95.0259 12.5683 94.0396 13.7594 91.1334 13.7594H89.7485V11.0652H90.5197C91.8259 11.0652 92.2508 10.4826 92.3347 8.66216C92.4082 6.70649 92.4344 2.82114 92.4344 0.969482Z" fill="#007BFB"/>
<path d="M118.244 0.969482H130V3.66374H125.656V13.7594H122.592V3.66374H118.249V0.969482H118.244Z" fill="#007BFB"/>
<path d="M49.2764 0.709473H48.1696C45.5099 0.709473 43.4955 2.31146 43.0339 4.69885L45.8614 5.14616C46.2496 4.01228 47.1361 3.23209 48.2588 3.18528C48.6207 3.16967 48.5368 3.17488 48.8987 3.18528C50.5669 3.24249 51.3223 4.03829 51.3223 5.99917C48.1591 5.99917 45.9978 5.85353 44.4083 6.88858C43.1073 7.73639 42.5513 8.67782 42.5513 10.1654C42.5513 12.3187 44.2404 14.0247 46.9683 14.0247C47.3984 14.0247 47.2201 14.0247 47.346 14.0247C49.2712 14.0247 50.8292 13.2809 51.464 12.3811V13.7595H54.3125V6.05118C54.302 3.07605 52.6967 0.709473 49.2764 0.709473ZM47.5401 11.5281C46.3283 11.4917 45.6306 10.7999 45.6306 9.92093C45.6306 9.19275 45.9611 8.83906 46.3965 8.5842C46.8529 8.31893 47.4509 8.22531 48.3742 8.1941C49.266 8.1629 49.9846 8.12129 51.3643 8.12129C51.3643 10.3058 49.9794 11.4033 48.2588 11.5177C47.9912 11.5437 47.8233 11.5385 47.5401 11.5281Z" fill="#007BFB"/>
<path d="M117.525 8.23048V7.03418C117.525 2.90437 114.913 0.771851 111.535 0.771851H110.874C107.238 0.771851 104.92 3.22685 104.799 6.6961C104.783 7.20582 104.783 7.41387 104.799 8.11085C104.883 11.5593 107.322 13.8843 110.58 13.9675C111.178 13.9831 111.099 13.9831 111.666 13.9675C114.504 13.8895 116.649 12.2667 117.284 10.1445L114.54 9.67123C113.869 11.0028 112.589 11.5125 111.566 11.5645C111.241 11.5801 111.199 11.5801 110.874 11.5645C109.268 11.4969 107.836 10.2538 107.836 8.44373V8.24088H117.525V8.23048ZM110.821 3.18004C111.146 3.16444 111.262 3.16444 111.582 3.18004C112.93 3.24766 114.346 4.11627 114.483 5.83789H107.847C108.004 4.30351 109.253 3.26326 110.821 3.18004Z" fill="#007BFB"/>
<path d="M88.8987 6.23839C88.8305 3.14363 86.3125 0.771851 82.9814 0.771851H81.7748C78.449 0.771851 75.9309 3.14363 75.8575 6.25399C75.8418 7.1174 75.8418 7.62193 75.8575 8.48014C75.9257 11.5905 78.4437 13.9623 81.7748 13.9623H82.9814C86.3072 13.9623 88.8252 11.5905 88.8987 8.48014C88.9197 7.62193 88.9197 7.1018 88.8987 6.23839ZM85.8613 8.3241C85.8246 10.1289 84.4974 11.3564 82.7138 11.4501C82.3728 11.4657 82.3938 11.4657 82.0529 11.4501C80.2483 11.3616 78.9421 10.1341 78.9053 8.3241C78.8896 7.56991 78.8896 7.14341 78.9053 6.39443C78.9421 4.60519 80.2483 3.37769 82.0529 3.28927C82.3938 3.27366 82.3728 3.27366 82.7138 3.28927C84.4974 3.37769 85.8246 4.60519 85.8613 6.41523C85.8771 7.16421 85.8771 7.57512 85.8613 8.3241Z" fill="#007BFB"/>
<path d="M37.7568 9.24992C37.4001 10.4358 36.4348 11.2472 35.1444 11.4293C34.7719 11.4813 34.4047 11.4657 34.1004 11.4241C32.4952 11.2004 31.3621 10.0041 31.3254 8.3241C31.3097 7.56991 31.3097 7.14341 31.3254 6.39443C31.3569 4.70401 32.5477 3.46091 34.1844 3.28927C34.2788 3.27886 34.6355 3.24766 34.9817 3.28407C36.3614 3.4297 37.3948 4.2515 37.7673 5.49461L40.7627 4.92247C40.1174 2.49347 37.8984 0.771851 35.0604 0.771851H34.2001C30.8742 0.771851 28.3562 3.14363 28.2828 6.25399C28.2671 7.1174 28.2671 7.62193 28.2828 8.48014C28.351 11.5905 30.869 13.9623 34.2001 13.9623H35.0604C37.9561 13.9623 40.1961 12.173 40.7889 9.65562L37.7568 9.24992Z" fill="#007BFB"/>
</svg>
