<svg width="120" height="20" viewBox="0 0 120 20" fill="none" xmlns="http://www.w3.org/2000/svg">
<path fill-rule="evenodd" clip-rule="evenodd" d="M18.7677 6.92069C14.9469 6.92069 12.1084 9.82884 12.1084 13.4113V13.4581C12.1084 17.0408 14.9259 19.9055 18.7257 19.9055C22.5481 19.9055 25.3856 16.996 25.3856 13.4113V13.3661C25.3856 9.78369 22.5688 6.92069 18.7677 6.92069ZM21.953 13.4581C21.953 15.2963 20.7612 16.8549 18.7677 16.8549C16.8473 16.8549 15.5436 15.2508 15.5436 13.4113V13.3661C15.5436 11.5303 16.7355 9.96798 18.7257 9.96798C20.6474 9.96798 21.953 11.5721 21.953 13.4113V13.4581Z" fill="#0B96D4"/>
<path fill-rule="evenodd" clip-rule="evenodd" d="M65.5991 16.7986H60.1451C60.1451 16.7986 61.7704 11.0411 61.8258 10.8792C61.8812 10.718 62.0868 10.1093 62.5862 10.1093H64.8423C65.2341 10.1093 65.5987 10.4301 65.5987 10.8792L65.5991 16.7986ZM67.1778 6.72656H60.7697C59.4706 6.72656 59.1018 8.11625 58.95 8.58751C58.7975 9.0581 56.521 16.7986 56.521 16.7986H55.938C55.1003 16.7986 54.417 17.4902 54.417 18.3545C54.417 19.2077 55.1003 19.9 55.9377 19.9H67.1778C67.9769 19.9 68.9982 19.2652 68.9982 18.0494V8.58751C68.9982 7.37241 67.9769 6.72656 67.1778 6.72656Z" fill="#0B96D4"/>
<path fill-rule="evenodd" clip-rule="evenodd" d="M34.4064 16.5189C32.645 17.0219 30.7993 15.9132 30.2852 14.0429C29.7717 12.1635 30.7783 10.2397 32.5397 9.738C34.3014 9.23563 36.1412 10.3437 36.6546 12.214C37.1753 14.094 36.1625 16.0172 34.4064 16.5189ZM40.0531 11.2447C39.0633 7.66132 35.3208 5.58766 31.6876 6.62449C31.1049 6.79038 30.5705 7.02986 30.075 7.32987C30.0665 6.85326 30.0311 6.08734 30.5869 5.51608C31.3689 4.71738 32.926 4.22874 33.1165 4.17522C33.6768 4.02237 35.4484 3.49927 36.7651 3.13705C38.077 2.77583 38.2639 1.77345 38.0655 1.02392C37.8658 0.273052 36.8901 -0.184826 35.9503 0.0717068C35.0162 0.329576 33.528 0.731266 32.06 1.14433C30.5862 1.55572 29.3252 2.34304 28.4451 3.16247C27.57 3.98257 26.9782 4.94716 26.7493 6.38602C26.3562 8.84097 26.5316 11.9655 26.6651 13.5238C26.6861 14.0171 26.7569 14.5171 26.8926 15.0128C27.8779 18.6053 31.6223 20.6689 35.2585 19.6324C38.8921 18.5942 41.0384 14.8385 40.0531 11.2447Z" fill="#0B96D4"/>
<path fill-rule="evenodd" clip-rule="evenodd" d="M9.18495 6.82554C9.17773 6.82554 9.17249 6.82721 9.16429 6.82721L9.16593 6.82554H6.18253H4.80248H1.81941L1.82073 6.82688C1.81286 6.82688 1.80761 6.82554 1.8004 6.82554C0.806261 6.82554 0 7.65567 0 8.66709V18.1685C0 19.1796 0.806261 20 1.8004 20C2.79126 20 3.60014 19.1796 3.60014 18.1685V10.9779C3.60014 10.529 3.9654 10.208 4.35132 10.208H4.96839H6.01663H6.6337C7.01962 10.208 7.3852 10.529 7.3852 10.9779V18.1685C7.3852 19.1796 8.19343 20 9.18495 20C10.1778 20 10.9853 19.1796 10.9853 18.1685V8.66709C10.9853 7.65567 10.1778 6.82554 9.18495 6.82554Z" fill="#0B96D4"/>
<path fill-rule="evenodd" clip-rule="evenodd" d="M54.2691 12.1715C54.2691 10.9019 53.8986 9.37574 52.6556 8.10546C51.634 7.07698 50.1352 6.39836 48.0414 6.39836C46.0016 6.39836 44.3911 7.07698 43.2563 8.21783C42.1274 9.37574 41.4155 11.0427 41.4155 13.0033C41.4155 15.0372 42.0978 16.7593 43.312 18.0129C44.5038 19.2273 46.2564 19.9066 48.4361 19.9066C49.6834 19.9066 50.9556 19.7651 52.1189 19.2849C53.192 18.8608 53.7294 18.3239 53.7294 17.5507C53.7294 16.7326 53.1363 16.0533 52.3441 16.0533C51.4071 16.0533 50.672 16.9286 48.6889 16.9286C46.8551 16.9286 45.6911 15.9978 45.3514 14.2746H52.4294C53.5868 14.2746 54.2691 13.5107 54.2691 12.1715ZM45.3239 11.8039C45.578 10.3082 46.5098 9.34798 48.0689 9.34798C49.5995 9.34798 50.5316 10.449 50.6444 11.8039H45.3239Z" fill="#0B96D4"/>
<path fill-rule="evenodd" clip-rule="evenodd" d="M81.4905 12.0987C81.4499 11.5636 81.0485 9.84409 79.8449 8.61361C78.7612 7.46138 77.3303 6.75701 75.3453 6.75701C74.2119 6.75701 73.583 6.76135 72.5239 7.21656C71.5488 7.61858 71.0609 8.12797 71.0609 8.86111C71.0609 9.63806 71.6013 10.2809 72.32 10.2809C73.1715 10.2809 73.1528 9.64107 74.9548 9.64107C76.4228 9.64107 77.4159 10.3261 77.8468 11.6004C76.7379 11.0706 75.5155 11.0451 75.5155 11.0451C75.5155 11.0451 71.2416 10.6532 70.3183 14.4881C69.8445 17.1116 71.334 19.4144 74.4588 19.8147C77.1913 19.997 78.5324 18.8485 78.5324 18.8485C78.816 19.3385 79.3344 19.6689 79.9363 19.6689C80.8331 19.6689 81.5666 18.9274 81.5666 18.0073C81.5666 17.9929 81.5928 13.4018 81.4905 12.0987ZM75.7509 17.4769C74.3814 17.4769 73.2669 16.5852 73.2669 15.4871C73.2669 14.3891 74.3814 13.4991 75.7509 13.4991C77.1238 13.4991 78.2369 14.3891 78.2369 15.4871C78.2369 16.5852 77.1238 17.4769 75.7509 17.4769Z" fill="#0B96D4"/>
<path fill-rule="evenodd" clip-rule="evenodd" d="M94.9054 14.5276C94.9054 17.4786 92.5627 19.861 89.6744 19.861C86.788 19.861 84.4473 17.4786 84.4473 14.5276C84.4473 11.5777 86.788 9.19396 89.6744 9.19396C92.5627 9.19396 94.9054 11.5777 94.9054 14.5276Z" fill="#0B96D4"/>
<path fill-rule="evenodd" clip-rule="evenodd" d="M107.454 14.5276C107.454 17.4786 105.111 19.861 102.227 19.861C99.339 19.861 96.9976 17.4786 96.9976 14.5276C96.9976 11.5777 99.339 9.19396 102.227 9.19396C105.111 9.19396 107.454 11.5777 107.454 14.5276Z" fill="#76B2E2"/>
<path fill-rule="evenodd" clip-rule="evenodd" d="M120 14.5276C120 17.4786 117.657 19.861 114.771 19.861C111.885 19.861 109.542 17.4786 109.542 14.5276C109.542 11.5777 111.885 9.19396 114.771 9.19396C117.657 9.19396 120 11.5777 120 14.5276Z" fill="#A4C8EB"/>
</svg>
