<svg width="176" height="176" viewBox="0 0 176 176" fill="none" xmlns="http://www.w3.org/2000/svg">
<path d="M87.4953 84.2475C87.4953 83.9058 87.4392 83.6087 87.327 83.3558C87.2141 83.1026 87.0434 82.8964 86.8135 82.7364C86.6143 82.5996 86.3816 82.5008 86.1173 82.4433C85.8511 82.3856 85.5208 82.3575 85.1261 82.3575H84.0812V86.3188H84.9416C85.4513 86.3188 85.8629 86.2758 86.1766 86.1893C86.4911 86.1023 86.7522 85.9488 86.9608 85.7259C87.1469 85.5264 87.2832 85.3091 87.3677 85.0741C87.4535 84.8381 87.4953 84.564 87.4953 84.2475ZM88.8078 84.2148C88.8078 84.6453 88.7347 85.0526 88.5873 85.4362C88.4411 85.8206 88.2389 86.1481 87.9797 86.418C87.6522 86.7554 87.2682 87.0119 86.8269 87.1849C86.3848 87.3576 85.8266 87.4445 85.1518 87.4445H84.0812V91.1399H82.8213V81.2252H85.2028C85.7626 81.2252 86.2406 81.2735 86.6353 81.3714C87.0307 81.4694 87.3784 81.6274 87.6806 81.8447C88.0322 82.0971 88.3092 82.4175 88.5087 82.8063C88.7074 83.195 88.8078 83.6644 88.8078 84.2148Z" fill="#231F20"/>
<path d="M87.4953 84.2475C87.4953 83.9058 87.4392 83.6087 87.327 83.3558C87.2141 83.1026 87.0434 82.8964 86.8135 82.7364C86.6143 82.5996 86.3816 82.5008 86.1173 82.4433C85.8511 82.3856 85.5208 82.3575 85.1261 82.3575H84.0812V86.3188H84.9416C85.4513 86.3188 85.8629 86.2758 86.1766 86.1893C86.4911 86.1023 86.7522 85.9488 86.9608 85.7259C87.1469 85.5264 87.2832 85.3091 87.3677 85.0741C87.4535 84.8381 87.4953 84.564 87.4953 84.2475ZM88.8078 84.2148C88.8078 84.6453 88.7347 85.0526 88.5873 85.4362C88.4411 85.8206 88.2389 86.1481 87.9797 86.418C87.6522 86.7554 87.2682 87.0119 86.8269 87.1849C86.3848 87.3576 85.8266 87.4445 85.1518 87.4445H84.0812V91.1399H82.8213V81.2252H85.2028C85.7626 81.2252 86.2406 81.2735 86.6353 81.3714C87.0307 81.4694 87.3784 81.6274 87.6806 81.8447C88.0322 82.0971 88.3092 82.4175 88.5087 82.8063C88.7074 83.195 88.8078 83.6644 88.8078 84.2148Z" stroke="#231F20" stroke-width="1.25" stroke-miterlimit="10"/>
<path d="M96.3652 84.6721L92.5385 93.5249H91.2581L92.5314 90.8265L89.9453 84.6721H91.2384L93.1813 89.4603L95.1172 84.6721H96.3652Z" fill="#231F20"/>
<path d="M96.3652 84.6721L92.5385 93.5249H91.2581L92.5314 90.8265L89.9453 84.6721H91.2384L93.1813 89.4603L95.1172 84.6721H96.3652Z" stroke="#231F20" stroke-width="1.25" stroke-miterlimit="10"/>
<path d="M100.426 91.2838C99.939 91.2838 99.4902 91.2147 99.0821 91.0789C98.6755 90.9417 98.3247 90.7335 98.032 90.4562C97.7396 90.1781 97.5117 89.8273 97.3509 89.4049C97.1889 88.9818 97.1079 88.4848 97.1079 87.9148C97.1079 87.3465 97.1921 86.8563 97.3604 86.4434C97.5279 86.0306 97.7515 85.6834 98.032 85.4013C98.3117 85.1204 98.6613 84.9024 99.0805 84.7507C99.4977 84.5973 99.9465 84.5215 100.426 84.5215C100.818 84.5215 101.194 84.5709 101.558 84.672C101.92 84.7723 102.243 84.8882 102.527 85.0192V86.2416H102.458C102.374 86.1752 102.265 86.0998 102.13 86.0149C101.996 85.9303 101.834 85.8437 101.644 85.7545C101.479 85.6774 101.282 85.6102 101.057 85.5518C100.832 85.4942 100.615 85.4653 100.407 85.4653C99.7881 85.4653 99.2903 85.6786 98.9134 86.1049C98.5381 86.5315 98.35 87.1345 98.35 87.9148C98.35 88.6791 98.5329 89.2742 98.8952 89.7004C99.2575 90.1267 99.762 90.3401 100.407 90.3401C100.799 90.3401 101.169 90.2674 101.522 90.1204C101.875 89.9742 102.187 89.785 102.458 89.5523H102.527V90.7742C102.41 90.8244 102.261 90.8852 102.083 90.9568C101.905 91.029 101.743 91.0812 101.598 91.1159C101.396 91.1701 101.212 91.2119 101.051 91.2412C100.889 91.2689 100.681 91.2838 100.426 91.2838Z" fill="#231F20"/>
<path d="M100.426 91.2838C99.939 91.2838 99.4902 91.2147 99.0821 91.0789C98.6755 90.9417 98.3247 90.7335 98.032 90.4562C97.7396 90.1781 97.5117 89.8273 97.3509 89.4049C97.1889 88.9818 97.1079 88.4848 97.1079 87.9148C97.1079 87.3465 97.1921 86.8563 97.3604 86.4434C97.5279 86.0306 97.7515 85.6834 98.032 85.4013C98.3117 85.1204 98.6613 84.9024 99.0805 84.7507C99.4977 84.5973 99.9465 84.5215 100.426 84.5215C100.818 84.5215 101.194 84.5709 101.558 84.672C101.92 84.7723 102.243 84.8882 102.527 85.0192V86.2416H102.458C102.374 86.1752 102.265 86.0998 102.13 86.0149C101.996 85.9303 101.834 85.8437 101.644 85.7545C101.479 85.6774 101.282 85.6102 101.057 85.5518C100.832 85.4942 100.615 85.4653 100.407 85.4653C99.7881 85.4653 99.2903 85.6786 98.9134 86.1049C98.5381 86.5315 98.35 87.1345 98.35 87.9148C98.35 88.6791 98.5329 89.2742 98.8952 89.7004C99.2575 90.1267 99.762 90.3401 100.407 90.3401C100.799 90.3401 101.169 90.2674 101.522 90.1204C101.875 89.9742 102.187 89.785 102.458 89.5523H102.527V90.7742C102.41 90.8244 102.261 90.8852 102.083 90.9568C101.905 91.029 101.743 91.0812 101.598 91.1159C101.396 91.1701 101.212 91.2119 101.051 91.2412C100.889 91.2689 100.681 91.2838 100.426 91.2838Z" stroke="#231F20" stroke-width="1.25" stroke-miterlimit="10"/>
<path d="M109.955 82.3975H105.592V91.1399H104.332V81.2252H109.955V82.3975Z" fill="#231F20"/>
<path d="M109.955 82.3975H105.592V91.1399H104.332V81.2252H109.955V82.3975Z" stroke="#231F20" stroke-width="1.25" stroke-miterlimit="10"/>
<path d="M115.16 91.1398H113.974V86.3164L110.625 91.1398H109.542V84.6721H110.726V89.4197L114.039 84.6721H115.16V91.1398Z" fill="#231F20"/>
<path d="M115.16 91.1398H113.974V86.3164L110.625 91.1398H109.542V84.6721H110.726V89.4197L114.039 84.6721H115.16V91.1398Z" stroke="#231F20" stroke-width="1.25" stroke-miterlimit="10"/>
<path d="M121.637 90.2126V85.5871H119.598C119.544 86.5519 119.398 87.4325 119.162 88.2305C118.927 89.0267 118.631 89.6879 118.273 90.2126H121.637ZM123.541 92.6909H122.426V91.1221H117.739V92.6909H116.624V90.2126H117.096C117.499 89.6109 117.829 88.8244 118.085 87.854C118.343 86.8825 118.471 85.8226 118.471 84.6721H122.834V90.2126H123.541V92.6909Z" fill="#231F20"/>
<path d="M121.637 90.2126V85.5871H119.598C119.544 86.5519 119.398 87.4325 119.162 88.2305C118.927 89.0267 118.631 89.6879 118.273 90.2126H121.637ZM123.541 92.6909H122.426V91.1221H117.739V92.6909H116.624V90.2126H117.096C117.499 89.6109 117.829 88.8244 118.085 87.854C118.343 86.8825 118.471 85.8226 118.471 84.6721H122.834V90.2126H123.541V92.6909Z" stroke="#231F20" stroke-width="1.25" stroke-miterlimit="10"/>
<path d="M126.5 85.6638V90.0491C126.815 90.1884 127.084 90.1632 127.307 90.2126C127.529 90.2623 127.785 90.2889 128.073 90.2889C128.694 90.2889 129.176 90.0815 129.52 89.6687C129.863 89.2554 130.036 88.6514 130.036 87.8564C130.036 87.1195 129.907 86.7869 129.647 86.3797C129.389 85.9723 128.967 85.7689 128.386 85.7689L126.5 85.6638ZM128.679 84.7322C129.494 84.7322 130.13 85.0249 130.586 85.6124C131.043 86.1991 131.271 86.747 131.271 87.7351C131.271 88.812 130.987 89.6694 130.421 90.3089C129.854 90.9471 129.137 91.267 128.271 91.267C127.919 91.267 127.607 91.3503 127.336 91.2766C127.064 91.2034 126.786 91.3298 126.5 91.175V93.5249H125.303V84.6721H126.5L128.679 84.7322Z" fill="#231F20"/>
<path d="M126.5 85.6638V90.0491C126.815 90.1884 127.084 90.1632 127.307 90.2126C127.529 90.2623 127.785 90.2889 128.073 90.2889C128.694 90.2889 129.176 90.0815 129.52 89.6687C129.863 89.2554 130.036 88.6514 130.036 87.8564C130.036 87.1195 129.907 86.7869 129.647 86.3797C129.389 85.9723 128.967 85.7689 128.386 85.7689L126.5 85.6638ZM128.679 84.7322C129.494 84.7322 130.13 85.0249 130.586 85.6124C131.043 86.1991 131.271 86.747 131.271 87.7351C131.271 88.812 130.987 89.6694 130.421 90.3089C129.854 90.9471 129.137 91.267 128.271 91.267C127.919 91.267 127.607 91.3503 127.336 91.2766C127.064 91.2034 126.786 91.3298 126.5 91.175V93.5249H125.303V84.6721H126.5L128.679 84.7322Z" stroke="#231F20" stroke-width="1.25" stroke-miterlimit="10"/>
<path d="M137.764 87.9089C137.764 87.0706 137.597 86.4488 137.262 86.0414C136.926 85.6337 136.449 85.431 135.828 85.431C135.204 85.431 134.724 85.6337 134.386 86.0414C134.048 86.4488 133.88 87.0706 133.88 87.9089C133.88 88.7184 134.048 89.3335 134.386 89.7519C134.724 90.1718 135.204 90.3808 135.828 90.3808C136.444 90.3808 136.921 90.1754 137.258 89.7641C137.596 89.3533 137.764 88.7341 137.764 87.9089ZM139 87.9089C139 88.997 138.712 89.8373 138.134 90.4307C137.557 91.0228 136.789 91.3183 135.828 91.3183C134.839 91.3183 134.061 91.0129 133.495 90.401C132.927 89.789 132.644 88.9585 132.644 87.9089C132.644 86.8277 132.936 85.9889 133.52 85.39C134.103 84.791 134.873 84.4919 135.828 84.4919C136.789 84.4919 137.557 84.7903 138.134 85.3864C138.712 85.9829 139 86.8241 139 87.9089Z" fill="#231F20"/>
<path d="M137.764 87.9089C137.764 87.0706 137.597 86.4488 137.262 86.0414C136.926 85.6337 136.449 85.431 135.828 85.431C135.204 85.431 134.724 85.6337 134.386 86.0414C134.048 86.4488 133.88 87.0706 133.88 87.9089C133.88 88.7184 134.048 89.3335 134.386 89.7519C134.724 90.1718 135.204 90.3808 135.828 90.3808C136.444 90.3808 136.921 90.1754 137.258 89.7641C137.596 89.3533 137.764 88.7341 137.764 87.9089ZM139 87.9089C139 88.997 138.712 89.8373 138.134 90.4307C137.557 91.0228 136.789 91.3183 135.828 91.3183C134.839 91.3183 134.061 91.0129 133.495 90.401C132.927 89.789 132.644 88.9585 132.644 87.9089C132.644 86.8277 132.936 85.9889 133.52 85.39C134.103 84.791 134.873 84.4919 135.828 84.4919C136.789 84.4919 137.557 84.7903 138.134 85.3864C138.712 85.9829 139 86.8241 139 87.9089Z" stroke="#231F20" stroke-width="1.25" stroke-miterlimit="10"/>
<mask id="mask0_2005_2144" style="mask-type:luminance" maskUnits="userSpaceOnUse" x="43" y="96" width="14" height="9">
<path d="M43.3374 99.065L45.3979 96.9643C45.3979 96.9643 48.7961 99.5604 51.0856 100.4C53.3769 101.24 55.0184 103.835 55.0184 103.835C55.0184 103.835 58.8735 104.714 53.1852 104.828C47.4978 104.943 44.3675 102.157 44.3675 102.157L43.3374 99.065Z" fill="white"/>
</mask>
<g mask="url(#mask0_2005_2144)">
<path d="M43.3374 99.065L45.3979 96.9643C45.3979 96.9643 48.7961 99.5604 51.0856 100.4C53.3769 101.24 55.0184 103.835 55.0184 103.835C55.0184 103.835 58.8735 104.714 53.1852 104.828C47.4978 104.943 44.3675 102.157 44.3675 102.157L43.3374 99.065Z" fill="url(#paint0_radial_2005_2144)"/>
</g>
<mask id="mask1_2005_2144" style="mask-type:luminance" maskUnits="userSpaceOnUse" x="37" y="75" width="34" height="27">
<path d="M40.1304 86.8485C40.1304 86.8485 34.5567 82.8788 39.9397 78.8696L45.0925 75.7016C45.0925 75.7016 45.6274 78.7556 58.1871 83.6793C70.7461 88.6037 70.3638 90.3599 70.5936 90.9331C70.8232 91.5056 71.0134 93.9866 68.9525 96.5823C66.8903 99.1786 63.0737 101.164 63.0737 101.164C63.0737 101.164 63.9517 98.9494 61.0116 97.0022C58.0728 95.056 51.7354 92.1935 49.6368 91.2772C47.5355 90.3599 40.1304 86.8485 40.1304 86.8485Z" fill="white"/>
</mask>
<g mask="url(#mask1_2005_2144)">
<path d="M40.1304 86.8485C40.1304 86.8485 34.5567 82.8788 39.9397 78.8696L45.0925 75.7016C45.0925 75.7016 45.6274 78.7556 58.1871 83.6793C70.7461 88.6037 70.3638 90.3599 70.5936 90.9331C70.8232 91.5056 71.0134 93.9866 68.9525 96.5823C66.8903 99.1786 63.0737 101.164 63.0737 101.164C63.0737 101.164 63.9517 98.9494 61.0116 97.0022C58.0728 95.056 51.7354 92.1935 49.6368 91.2772C47.5355 90.3599 40.1304 86.8485 40.1304 86.8485Z" fill="url(#paint1_radial_2005_2144)"/>
</g>
<mask id="mask2_2005_2144" style="mask-type:luminance" maskUnits="userSpaceOnUse" x="53" y="70" width="13" height="8">
<path d="M54.4074 70.2033C54.4074 70.2033 61.203 70.3945 64.1043 73.219C67.0055 76.0445 64.1807 75.93 63.8375 76.3499C63.4935 76.7695 61.9279 77.0372 61.9279 77.0372C61.9279 77.0372 56.6602 74.9755 53.1855 71.5782C52.537 70.5475 54.4074 70.2033 54.4074 70.2033Z" fill="white"/>
</mask>
<g mask="url(#mask2_2005_2144)">
<path d="M54.4074 70.2033C54.4074 70.2033 61.203 70.3945 64.1043 73.219C67.0055 76.0445 64.1807 75.93 63.8375 76.3499C63.4935 76.7695 61.9279 77.0372 61.9279 77.0372C61.9279 77.0372 56.6602 74.9755 53.1855 71.5782C52.537 70.5475 54.4074 70.2033 54.4074 70.2033Z" fill="url(#paint2_radial_2005_2144)"/>
</g>
<mask id="mask3_2005_2144" style="mask-type:luminance" maskUnits="userSpaceOnUse" x="37" y="72" width="35" height="31">
<path d="M63.5946 72.6999C63.5946 72.6999 65.2351 74.6433 62.5767 76.3127C53.1091 82.4198 44.406 82.5343 37 89.8641C37 94.8648 42.3449 101.125 44.4446 102.271C44.4446 102.271 42.955 100.363 45.8949 98.4532C48.834 96.5446 56.2781 93.3761 58.7217 92.4599C61.1648 91.5431 66.6996 89.0625 68.1123 87.9551C69.5249 86.8484 70.3262 86.504 71.1659 84.672C70.2885 79.1364 67.4627 75.2043 63.5946 72.6999Z" fill="white"/>
</mask>
<g mask="url(#mask3_2005_2144)">
<path d="M63.5946 72.6999C63.5946 72.6999 65.2351 74.6433 62.5767 76.3127C53.1091 82.4198 44.406 82.5343 37 89.8641C37 94.8648 42.3449 101.125 44.4446 102.271C44.4446 102.271 42.955 100.363 45.8949 98.4532C48.834 96.5446 56.2781 93.3761 58.7217 92.4599C61.1648 91.5431 66.6996 89.0625 68.1123 87.9551C69.5249 86.8484 70.3262 86.504 71.1659 84.672C70.2885 79.1364 67.4627 75.2043 63.5946 72.6999Z" fill="url(#paint3_radial_2005_2144)"/>
</g>
<mask id="mask4_2005_2144" style="mask-type:luminance" maskUnits="userSpaceOnUse" x="53" y="94" width="18" height="12">
<path d="M70.2512 94.2924C70.2512 94.2924 66.0899 98.1869 60.4394 100.706C55.0094 103.127 53.9495 104.027 53.3389 104.751C53.4154 105.096 53.7975 105.02 54.2174 105.02C54.6372 105.02 58.8368 104.676 62.4626 102.805C66.0899 100.935 68.533 98.3386 70.2512 94.2924Z" fill="white"/>
</mask>
<g mask="url(#mask4_2005_2144)">
<path d="M70.2512 94.2924C70.2512 94.2924 66.0899 98.1869 60.4394 100.706C55.0094 103.127 53.9495 104.027 53.3389 104.751C53.4154 105.096 53.7975 105.02 54.2174 105.02C54.6372 105.02 58.8368 104.676 62.4626 102.805C66.0899 100.935 68.533 98.3386 70.2512 94.2924Z" fill="url(#paint4_radial_2005_2144)"/>
</g>
<mask id="mask5_2005_2144" style="mask-type:luminance" maskUnits="userSpaceOnUse" x="37" y="70" width="19" height="12">
<path d="M55.0185 70.0889C53.5299 70.051 42.2685 69.8977 37.8398 81.3507C37.8398 81.3507 41.3842 77.4005 46.1997 75.2433C51.3154 72.9524 56.507 70.1277 55.0185 70.0889Z" fill="white"/>
</mask>
<g mask="url(#mask5_2005_2144)">
<path d="M55.0185 70.0889C53.5299 70.051 42.2685 69.8977 37.8398 81.3507C37.8398 81.3507 41.3842 77.4005 46.1997 75.2433C51.3154 72.9524 56.507 70.1277 55.0185 70.0889Z" fill="url(#paint5_radial_2005_2144)"/>
</g>
<defs>
<radialGradient id="paint0_radial_2005_2144" cx="0" cy="0" r="1" gradientUnits="userSpaceOnUse" gradientTransform="translate(38.0674 104.614) scale(0.535958)">
<stop stop-color="#F57D14"/>
<stop offset="1" stop-color="#F2521B"/>
</radialGradient>
<radialGradient id="paint1_radial_2005_2144" cx="0" cy="0" r="1" gradientUnits="userSpaceOnUse" gradientTransform="translate(38.5022 103.367) scale(1.47742)">
<stop stop-color="#F57D14"/>
<stop offset="1" stop-color="#F2521B"/>
</radialGradient>
<radialGradient id="paint2_radial_2005_2144" cx="0" cy="0" r="1" gradientUnits="userSpaceOnUse" gradientTransform="translate(39.0084 101.886) scale(0.499086)">
<stop stop-color="#F57D14"/>
<stop offset="1" stop-color="#F2521B"/>
</radialGradient>
<radialGradient id="paint3_radial_2005_2144" cx="0" cy="0" r="1" gradientUnits="userSpaceOnUse" gradientTransform="translate(39.0328 102.661) scale(2.49341 2.49341)">
<stop stop-color="#576EBE"/>
<stop offset="0.563636" stop-color="#293D9B"/>
<stop offset="0.678788" stop-color="#2B2F7F"/>
<stop offset="0.90303" stop-color="#293D9B"/>
<stop offset="1" stop-color="#576EBE"/>
</radialGradient>
<radialGradient id="paint4_radial_2005_2144" cx="0" cy="0" r="1" gradientUnits="userSpaceOnUse" gradientTransform="translate(38.8826 104.309) scale(0.87322)">
<stop stop-color="#2B2F7F"/>
<stop offset="0.661236" stop-color="#293D9B"/>
<stop offset="1" stop-color="#576EBE"/>
</radialGradient>
<radialGradient id="paint5_radial_2005_2144" cx="0" cy="0" r="1" gradientUnits="userSpaceOnUse" gradientTransform="translate(39.0326 102.661) scale(2.49346 2.49345)">
<stop stop-color="#576EBE"/>
<stop offset="0.563636" stop-color="#293D9B"/>
<stop offset="0.678788" stop-color="#2B2F7F"/>
<stop offset="0.90303" stop-color="#293D9B"/>
<stop offset="1" stop-color="#576EBE"/>
</radialGradient>
</defs>
</svg>
