<svg width="92" height="29" viewBox="0 0 92 29" fill="none" xmlns="http://www.w3.org/2000/svg">
<path d="M22.555 24.4478L19.896 19.9758L17.292 24.4478H14.1742L18.1796 17.7121L14.0977 11.4588H17.3544L19.9694 15.6339L22.4634 11.4588H25.5809L21.5648 17.9162L25.6909 24.4478H22.555Z" fill="#100F0D"/>
<path d="M35.8244 20.0316C35.8244 22.8891 33.6972 24.6704 30.9097 24.6704C28.4523 24.6704 26.3833 23.2974 26.1816 20.3099H28.8407C29.024 21.6088 30.051 22.1655 31.1698 22.1655C32.5634 22.1655 33.1654 21.2191 33.1654 19.9944C33.1654 18.7141 32.2302 17.9162 30.928 17.9162C29.8461 17.9162 29.1309 18.4358 28.8008 18.9925H26.259L27.1378 11.4589H35.4977L35.2193 13.9825H29.2392L29.0018 16.4756C29.0018 16.4756 29.6302 15.7267 31.5333 15.7267C33.8256 15.7267 35.8244 17.2854 35.8244 20.0316Z" fill="#100F0D"/>
<path d="M26.4966 9.8412C25.0803 4.25427 20.5857 0.329081 11.2598 0.329081H0L1.5285 10.7867C2.67832 20.2229 6.24517 23.2588 12.5572 24.3765C12.5869 24.3812 12.786 24.4099 12.789 24.1731C12.79 24.0879 12.7365 24.0144 12.6635 23.9832C8.39701 22.1654 7.91007 16.2051 6.99894 10.2233L6.2935 5.45677H12.7214C18.6477 5.45677 23.2225 5.36207 26.1199 9.9903C26.1633 10.0557 26.2301 10.1037 26.3095 10.1037C26.4216 10.1037 26.5045 10.0117 26.5045 9.89817C26.5045 9.87839 26.5017 9.85933 26.4966 9.8412Z" fill="#55B435"/>
<path d="M38.0547 17.9435C38.0547 13.9085 40.9499 10.9974 44.9741 10.9974C47.6691 10.9974 50.1091 12.5819 50.8193 14.756L49.3079 15.2719C48.7617 13.6505 46.959 12.4714 44.9741 12.4714C41.8968 12.4714 39.7117 14.7376 39.7117 17.9435C39.7117 21.1125 41.915 23.434 44.9741 23.434C47.7419 23.434 49.927 21.4257 49.9999 18.8094L43.6267 18.791V17.2986H51.6751C51.9482 21.7205 49.144 24.908 44.9741 24.908C40.9499 24.908 38.0547 21.9784 38.0547 17.9435Z" fill="#100F0D"/>
<path d="M53.6675 15.1431H55.1424V16.3959H55.3063C55.7252 15.5484 56.7448 14.9588 57.7645 14.9588C58.1834 14.9588 58.6204 15.0509 58.8936 15.1983V16.617C58.4201 16.4143 57.8739 16.3406 57.5279 16.3406C56.144 16.3406 55.1789 17.5934 55.1789 19.4359V24.4474H53.6675V15.1431Z" fill="#100F0D"/>
<path d="M68.1022 19.786C68.1022 17.6856 66.6636 16.1564 64.6788 16.1564C62.6759 16.1564 61.2555 17.6856 61.2555 19.786C61.2555 21.9048 62.6759 23.4341 64.6788 23.4341C66.6636 23.4341 68.1022 21.9048 68.1022 19.786ZM59.7441 19.786C59.7441 16.8566 61.7836 14.7746 64.6788 14.7746C67.5559 14.7746 69.6135 16.8566 69.6135 19.786C69.6135 22.734 67.5559 24.8159 64.6788 24.8159C61.7836 24.8159 59.7441 22.734 59.7441 19.786Z" fill="#100F0D"/>
<path d="M79.7777 24.4474H78.2664V23.1761H78.0843C77.4469 24.1894 76.409 24.7791 75.2072 24.7791C72.8583 24.7791 71.3833 23.0656 71.3833 20.6887V15.1431H72.8946V20.6887C72.8946 22.2733 73.8051 23.3972 75.3893 23.3972C76.937 23.3972 78.2664 22.1996 78.2664 20.5598V15.1431H79.7777V24.4474Z" fill="#100F0D"/>
<path d="M83.6604 19.7859C83.6604 21.831 85.0989 23.4339 87.0836 23.4339C89.0502 23.4339 90.4888 21.831 90.4888 19.7859C90.4888 17.704 89.0502 16.1563 87.0836 16.1563C85.0989 16.1563 83.6604 17.7408 83.6604 19.7859ZM92.0002 19.7859C92.0002 22.697 89.9425 24.8158 87.2657 24.8158C85.7908 24.8158 84.5526 24.1709 83.8789 23.0655H83.715V28.6849H82.2036V15.143H83.715V16.5617H83.8789C84.5526 15.4378 85.7362 14.7745 87.2475 14.7745C89.9243 14.7745 92.0002 16.8749 92.0002 19.7859Z" fill="#100F0D"/>
</svg>
