<svg width="176" height="176" viewBox="0 0 176 176" fill="none" xmlns="http://www.w3.org/2000/svg">
<path d="M51 79.0235C55.8853 79.0224 60.7707 79.0245 65.656 79.0224C67.6608 79.0266 69.6601 79.6799 71.2532 80.8778C72.9272 82.1166 74.1535 83.928 74.6579 85.9273C75.1209 87.7333 75.014 89.6789 74.3369 91.4207C73.65 93.2203 72.3594 94.7863 70.7215 95.8363C69.1961 96.8164 67.3693 97.3528 65.5446 97.311C60.6965 97.3088 55.8482 97.311 51 97.3098C51 91.2148 51 85.1196 51 79.0235ZM55.6407 83.6084C55.6407 86.6566 55.6396 89.7046 55.6419 92.7528C58.946 92.7516 62.2502 92.7506 65.5545 92.7528C66.2162 92.7538 66.88 92.6273 67.4861 92.3634C69.1033 91.6801 70.2596 90.0371 70.276 88.2997C70.3394 86.8411 69.6088 85.3877 68.4197 84.5201C67.6608 83.9549 66.7206 83.6159 65.7663 83.6074C62.3911 83.6095 59.016 83.6074 55.6407 83.6084ZM77.5385 79.1671C78.3999 78.8518 79.3903 79.1189 80.0369 79.742C85.1188 83.3661 90.2147 86.9719 95.3043 90.5873C95.3065 86.7327 95.3043 82.878 95.3055 79.0235C96.8526 79.0235 98.3988 79.0235 99.9462 79.0235C99.9472 84.2606 99.944 89.4966 99.9483 94.7337C99.9571 95.2722 99.8774 95.8384 99.5574 96.2909C99.0399 97.0889 97.9817 97.4858 97.0525 97.2444C96.536 97.1459 96.1418 96.7929 95.7443 96.483C90.7117 92.9083 85.6755 89.3378 80.6449 85.7609C80.6472 89.6103 80.6449 93.4595 80.6461 97.3098C79.0989 97.3098 77.5527 97.3098 76.0054 97.3098C76.0054 91.9815 76.0054 86.6532 76.0054 81.3239C75.9846 80.3802 76.6311 79.475 77.5385 79.1671ZM105.69 79.1532C106.419 79.0085 107.168 79.0224 107.91 79.0235C112.388 79.0245 116.865 79.0213 121.343 79.0255C121.966 79.0192 122.599 79.2144 123.055 79.6445C123.639 80.1753 123.899 81.0119 123.738 81.7755C123.547 82.7655 122.607 83.5688 121.575 83.5807C116.766 83.5817 111.958 83.5837 107.147 83.5795C106.663 83.5431 106.118 83.7136 105.874 84.1554C105.594 84.5834 105.671 85.1775 106.034 85.5368C106.306 85.8489 106.744 85.9262 107.143 85.9165C111.29 85.9079 115.439 85.924 119.585 85.9069C121.313 86.0077 122.957 86.9279 123.946 88.32C124.786 89.4849 125.149 90.9702 124.944 92.3816C124.739 93.9454 123.829 95.4061 122.502 96.2931C121.563 96.941 120.422 97.2981 119.276 97.3098C113.958 97.3088 108.641 97.312 103.325 97.3088C102.462 97.3013 101.627 96.7683 101.279 95.9907C100.917 95.2357 101.027 94.2917 101.551 93.6355C101.99 93.0649 102.713 92.742 103.437 92.7516C108.681 92.7528 113.923 92.7506 119.166 92.7528C119.876 92.7956 120.497 92.077 120.345 91.396C120.245 90.8598 119.73 90.434 119.173 90.4469C115.021 90.4447 110.869 90.4457 106.717 90.4469C105.211 90.4296 103.734 89.7755 102.693 88.7093C101.393 87.4083 100.813 85.4682 101.168 83.6802C101.566 81.4592 103.435 79.5854 105.69 79.1532Z" fill="#F08B21"/>
</svg>
