<svg width="48" height="48" viewBox="0 0 48 48" fill="none" xmlns="http://www.w3.org/2000/svg">
<path d="M8.3405 19.1109C8.87598 19.1109 9.32124 18.6829 9.32124 18.1676C9.32124 17.5678 8.87598 17.1399 8.3405 17.1399C7.71626 17.1399 7.26953 17.5678 7.26953 18.1676C7.26953 18.6829 7.71626 19.1109 8.3405 19.1109Z" fill="#F80C30"/>
<path d="M10.3035 19.1109C10.9277 19.1109 11.3745 18.6829 11.3745 18.1676C11.3745 17.5678 10.9277 17.1399 10.3035 17.1399C9.76802 17.1399 9.32129 17.5678 9.32129 18.1676C9.32129 18.6829 9.76802 19.1109 10.3035 19.1109Z" fill="#F80C30"/>
<path d="M12.3552 19.1109C12.8907 19.1109 13.336 18.6829 13.336 18.1676C13.336 17.5678 12.8907 17.1399 12.3552 17.1399C11.8198 17.1399 11.3745 17.5678 11.3745 18.1676C11.3745 18.6829 11.8198 19.1109 12.3552 19.1109Z" fill="#F80C30"/>
<path d="M14.4069 19.1109C14.9424 19.1109 15.3891 18.6829 15.3891 18.1676C15.3891 17.5678 14.9424 17.1399 14.4069 17.1399C13.7827 17.1399 13.3359 17.5678 13.3359 18.1676C13.3359 18.6829 13.7827 19.1109 14.4069 19.1109Z" fill="#F80C30"/>
<path d="M16.3699 19.1109C16.9941 19.1109 17.4409 18.6829 17.4409 18.1676C17.4409 17.5678 16.9941 17.1399 16.3699 17.1399C15.8344 17.1399 15.3892 17.5678 15.3892 18.1676C15.3892 18.6829 15.8344 19.1109 16.3699 19.1109Z" fill="#F80C30"/>
<path d="M18.4215 19.1109C18.957 19.1109 19.4038 18.6829 19.4038 18.1676C19.4038 17.5678 18.957 17.1399 18.4215 17.1399C17.8861 17.1399 17.3506 17.5678 17.3506 18.1676C17.3506 18.6829 17.8861 19.1109 18.4215 19.1109Z" fill="#F80C30"/>
<path d="M20.3845 19.1109C21.0088 19.1109 21.4555 18.6829 21.4555 18.1676C21.4555 17.5678 21.0088 17.1399 20.3845 17.1399C19.849 17.1399 19.4038 17.5678 19.4038 18.1676C19.4038 18.6829 19.849 19.1109 20.3845 19.1109Z" fill="#F80C30"/>
<path d="M22.4363 19.1109C22.9718 19.1109 23.5073 18.6829 23.5073 18.1676C23.5073 17.5678 22.9718 17.1399 22.4363 17.1399C21.9008 17.1399 21.4556 17.5678 21.4556 18.1676C21.4556 18.6829 21.9008 19.1109 22.4363 19.1109Z" fill="#F80C30"/>
<path d="M24.4879 19.1109C25.0234 19.1109 25.4702 18.6829 25.4702 18.1676C25.4702 17.5678 25.0234 17.1399 24.4879 17.1399C23.8637 17.1399 23.4185 17.5678 23.4185 18.1676C23.4185 18.6829 23.8637 19.1109 24.4879 19.1109Z" fill="#F80C30"/>
<path d="M26.4509 19.1109C27.0752 19.1109 27.5219 18.6829 27.5219 18.1676C27.5219 17.5678 27.0752 17.1399 26.4509 17.1399C25.9155 17.1399 25.4702 17.5678 25.4702 18.1676C25.4702 18.6829 25.9155 19.1109 26.4509 19.1109Z" fill="#F80C30"/>
<path d="M28.5027 19.1109C29.0382 19.1109 29.4849 18.6829 29.4849 18.1676C29.4849 17.5678 29.0382 17.1399 28.5027 17.1399C27.9672 17.1399 27.522 17.5678 27.522 18.1676C27.522 18.6829 27.9672 19.1109 28.5027 19.1109Z" fill="#F80C30"/>
<path d="M30.5544 19.1109C31.0898 19.1109 31.5366 18.6829 31.5366 18.1676C31.5366 17.5678 31.0898 17.1399 30.5544 17.1399C29.9301 17.1399 29.4849 17.5678 29.4849 18.1676C29.4849 18.6829 29.9301 19.1109 30.5544 19.1109Z" fill="#F80C30"/>
<path d="M8.3405 21.1678C8.87598 21.1678 9.32124 20.7398 9.32124 20.1401C9.32124 19.6263 8.87598 19.1968 8.3405 19.1968C7.71626 19.1968 7.26953 19.6263 7.26953 20.1401C7.26953 20.7398 7.71626 21.1678 8.3405 21.1678Z" fill="#F80C30"/>
<path d="M10.3035 21.1678C10.9277 21.1678 11.3745 20.7398 11.3745 20.1401C11.3745 19.6263 10.9277 19.1968 10.3035 19.1968C9.76802 19.1968 9.32129 19.6263 9.32129 20.1401C9.32129 20.7398 9.76802 21.1678 10.3035 21.1678Z" fill="#F80C30"/>
<path d="M12.3552 21.1678C12.8907 21.1678 13.336 20.7398 13.336 20.1401C13.336 19.6263 12.8907 19.1968 12.3552 19.1968C11.8198 19.1968 11.3745 19.6263 11.3745 20.1401C11.3745 20.7398 11.8198 21.1678 12.3552 21.1678Z" fill="#F80C30"/>
<path d="M14.4069 21.1678C14.9424 21.1678 15.3891 20.7398 15.3891 20.1401C15.3891 19.6263 14.9424 19.1968 14.4069 19.1968C13.7827 19.1968 13.3359 19.6263 13.3359 20.1401C13.3359 20.7398 13.7827 21.1678 14.4069 21.1678Z" fill="#F80C30"/>
<path d="M16.3699 21.1678C16.9941 21.1678 17.4409 20.7398 17.4409 20.1401C17.4409 19.6263 16.9941 19.1968 16.3699 19.1968C15.8344 19.1968 15.3892 19.6263 15.3892 20.1401C15.3892 20.7398 15.8344 21.1678 16.3699 21.1678Z" fill="#F80C30"/>
<path d="M18.4215 21.1678C18.957 21.1678 19.4038 20.7398 19.4038 20.1401C19.4038 19.6263 18.957 19.1968 18.4215 19.1968C17.8861 19.1968 17.3506 19.6263 17.3506 20.1401C17.3506 20.7398 17.8861 21.1678 18.4215 21.1678Z" fill="#F80C30"/>
<path d="M20.3845 21.1678C21.0088 21.1678 21.4555 20.7398 21.4555 20.1401C21.4555 19.6263 21.0088 19.1968 20.3845 19.1968C19.849 19.1968 19.4038 19.6263 19.4038 20.1401C19.4038 20.7398 19.849 21.1678 20.3845 21.1678Z" fill="#F80C30"/>
<path d="M22.4363 21.1678C22.9718 21.1678 23.5073 20.7398 23.5073 20.1401C23.5073 19.6263 22.9718 19.1968 22.4363 19.1968C21.9008 19.1968 21.4556 19.6263 21.4556 20.1401C21.4556 20.7398 21.9008 21.1678 22.4363 21.1678Z" fill="#F80C30"/>
<path d="M24.4879 21.1678C25.0234 21.1678 25.4702 20.7398 25.4702 20.1401C25.4702 19.6263 25.0234 19.1968 24.4879 19.1968C23.8637 19.1968 23.4185 19.6263 23.4185 20.1401C23.4185 20.7398 23.8637 21.1678 24.4879 21.1678Z" fill="#F80C30"/>
<path d="M26.4509 21.1678C27.0752 21.1678 27.5219 20.7398 27.5219 20.1401C27.5219 19.6263 27.0752 19.1968 26.4509 19.1968C25.9155 19.1968 25.4702 19.6263 25.4702 20.1401C25.4702 20.7398 25.9155 21.1678 26.4509 21.1678Z" fill="#F80C30"/>
<path d="M28.5027 21.1678C29.0382 21.1678 29.4849 20.7398 29.4849 20.1401C29.4849 19.6263 29.0382 19.1968 28.5027 19.1968C27.9672 19.1968 27.522 19.6263 27.522 20.1401C27.522 20.7398 27.9672 21.1678 28.5027 21.1678Z" fill="#F80C30"/>
<path d="M30.5544 21.1678C31.0898 21.1678 31.5366 20.7398 31.5366 20.1401C31.5366 19.6263 31.0898 19.1968 30.5544 19.1968C29.9301 19.1968 29.4849 19.6263 29.4849 20.1401C29.4849 20.7398 29.9301 21.1678 30.5544 21.1678Z" fill="#F80C30"/>
<path d="M8.3405 23.1402C8.87598 23.1402 9.32271 22.7107 9.32271 22.1969C9.32271 21.683 8.87598 21.2536 8.3405 21.2536C7.71626 21.2536 7.26953 21.683 7.26953 22.1969C7.26953 22.7107 7.71626 23.1402 8.3405 23.1402Z" fill="#F80C30"/>
<path d="M10.3035 23.1402C10.9277 23.1402 11.3745 22.7107 11.3745 22.1969C11.3745 21.683 10.9277 21.2536 10.3035 21.2536C9.76801 21.2536 9.32275 21.683 9.32275 22.1969C9.32275 22.7107 9.76801 23.1402 10.3035 23.1402Z" fill="#F80C30"/>
<path d="M12.3552 23.1402C12.8907 23.1402 13.3375 22.7107 13.3375 22.1969C13.3375 21.683 12.8907 21.2536 12.3552 21.2536C11.8198 21.2536 11.3745 21.683 11.3745 22.1969C11.3745 22.7107 11.8198 23.1402 12.3552 23.1402Z" fill="#F80C30"/>
<path d="M14.4069 23.1402C14.9424 23.1402 15.3891 22.7107 15.3891 22.1969C15.3891 21.683 14.9424 21.2536 14.4069 21.2536C13.7827 21.2536 13.3374 21.683 13.3374 22.1969C13.3374 22.7107 13.7827 23.1402 14.4069 23.1402Z" fill="#F80C30"/>
<path d="M16.3699 23.1402C16.9941 23.1402 17.4409 22.7107 17.4409 22.1969C17.4409 21.683 16.9941 21.2536 16.3699 21.2536C15.8344 21.2536 15.3892 21.683 15.3892 22.1969C15.3892 22.7107 15.8344 23.1402 16.3699 23.1402Z" fill="#F80C30"/>
<path d="M18.4215 23.1402C18.957 23.1402 19.4038 22.7107 19.4038 22.1969C19.4038 21.683 18.957 21.2536 18.4215 21.2536C17.8861 21.2536 17.3521 21.683 17.3521 22.1969C17.3521 22.7107 17.8861 23.1402 18.4215 23.1402Z" fill="#F80C30"/>
<path d="M20.3845 23.1402C21.0088 23.1402 21.4555 22.7107 21.4555 22.1969C21.4555 21.683 21.0088 21.2536 20.3845 21.2536C19.849 21.2536 19.4038 21.683 19.4038 22.1969C19.4038 22.7107 19.849 23.1402 20.3845 23.1402Z" fill="#F80C30"/>
<path d="M22.4363 23.1402C22.9718 23.1402 23.5073 22.7107 23.5073 22.1969C23.5073 21.683 22.9718 21.2536 22.4363 21.2536C21.9008 21.2536 21.4556 21.683 21.4556 22.1969C21.4556 22.7107 21.9008 23.1402 22.4363 23.1402Z" fill="#F80C30"/>
<path d="M24.4879 23.1402C25.0234 23.1402 25.4702 22.7107 25.4702 22.1969C25.4702 21.683 25.0234 21.2536 24.4879 21.2536C23.8637 21.2536 23.4185 21.683 23.4185 22.1969C23.4185 22.7107 23.8637 23.1402 24.4879 23.1402Z" fill="#F80C30"/>
<path d="M26.4509 23.1402C27.0752 23.1402 27.5219 22.7107 27.5219 22.1969C27.5219 21.683 27.0752 21.2536 26.4509 21.2536C25.9155 21.2536 25.4702 21.683 25.4702 22.1969C25.4702 22.7107 25.9155 23.1402 26.4509 23.1402Z" fill="#F80C30"/>
<path d="M28.5027 23.1402C29.0382 23.1402 29.4849 22.7107 29.4849 22.1969C29.4849 21.683 29.0382 21.2536 28.5027 21.2536C27.9687 21.2536 27.522 21.683 27.522 22.1969C27.522 22.7107 27.9687 23.1402 28.5027 23.1402Z" fill="#F80C30"/>
<path d="M30.5558 23.1402C31.0898 23.1402 31.5366 22.7107 31.5366 22.1969C31.5366 21.683 31.0898 21.2536 30.5558 21.2536C29.9301 21.2536 29.4849 21.683 29.4849 22.1969C29.4849 22.7107 29.9301 23.1402 30.5558 23.1402Z" fill="#F80C30"/>
<path d="M8.3405 25.1971C8.87598 25.1971 9.32271 24.7691 9.32271 24.2538C9.32271 23.6541 8.87598 23.2261 8.3405 23.2261C7.71626 23.2261 7.26953 23.6541 7.26953 24.2538C7.26953 24.7691 7.71626 25.1971 8.3405 25.1971Z" fill="#F80C30"/>
<path d="M10.3035 25.1971C10.9277 25.1971 11.3745 24.7691 11.3745 24.2538C11.3745 23.6541 10.9277 23.2261 10.3035 23.2261C9.76801 23.2261 9.32275 23.6541 9.32275 24.2538C9.32275 24.7691 9.76801 25.1971 10.3035 25.1971Z" fill="#F80C30"/>
<path d="M12.3552 25.1971C12.8907 25.1971 13.3375 24.7691 13.3375 24.2538C13.3375 23.6541 12.8907 23.2261 12.3552 23.2261C11.8198 23.2261 11.3745 23.6541 11.3745 24.2538C11.3745 24.7691 11.8198 25.1971 12.3552 25.1971Z" fill="#F80C30"/>
<path d="M14.4069 25.1971C14.9424 25.1971 15.3891 24.7691 15.3891 24.2538C15.3891 23.6541 14.9424 23.2261 14.4069 23.2261C13.7827 23.2261 13.3374 23.6541 13.3374 24.2538C13.3374 24.7691 13.7827 25.1971 14.4069 25.1971Z" fill="#F80C30"/>
<path d="M16.3699 25.1971C16.9941 25.1971 17.4409 24.7691 17.4409 24.2538C17.4409 23.6541 16.9941 23.2261 16.3699 23.2261C15.8344 23.2261 15.3892 23.6541 15.3892 24.2538C15.3892 24.7691 15.8344 25.1971 16.3699 25.1971Z" fill="#F80C30"/>
<path d="M18.4215 25.1971C18.957 25.1971 19.4038 24.7691 19.4038 24.2538C19.4038 23.6541 18.957 23.2261 18.4215 23.2261C17.8861 23.2261 17.3521 23.6541 17.3521 24.2538C17.3521 24.7691 17.8861 25.1971 18.4215 25.1971Z" fill="#F80C30"/>
<path d="M20.3845 25.1971C21.0088 25.1971 21.4555 24.7691 21.4555 24.2538C21.4555 23.6541 21.0088 23.2261 20.3845 23.2261C19.849 23.2261 19.4038 23.6541 19.4038 24.2538C19.4038 24.7691 19.849 25.1971 20.3845 25.1971Z" fill="#F80C30"/>
<path d="M22.4363 25.1971C22.9718 25.1971 23.5073 24.7691 23.5073 24.2538C23.5073 23.6541 22.9718 23.2261 22.4363 23.2261C21.9008 23.2261 21.4556 23.6541 21.4556 24.2538C21.4556 24.7691 21.9008 25.1971 22.4363 25.1971Z" fill="#F80C30"/>
<path d="M24.4894 25.1971C25.0234 25.1971 25.4702 24.7691 25.4702 24.2538C25.4702 23.6541 25.0234 23.2261 24.4894 23.2261C23.8637 23.2261 23.4185 23.6541 23.4185 24.2538C23.4185 24.7691 23.8637 25.1971 24.4894 25.1971Z" fill="#F80C30"/>
<path d="M26.4509 25.1971C27.0767 25.1971 27.5219 24.7691 27.5219 24.2538C27.5219 23.6541 27.0767 23.2261 26.4509 23.2261C25.9155 23.2261 25.4702 23.6541 25.4702 24.2538C25.4702 24.7691 25.9155 25.1971 26.4509 25.1971Z" fill="#F80C30"/>
<path d="M28.5042 25.1971C29.0382 25.1971 29.4849 24.7691 29.4849 24.2538C29.4849 23.6541 29.0382 23.2261 28.5042 23.2261C27.9687 23.2261 27.522 23.6541 27.522 24.2538C27.522 24.7691 27.9687 25.1971 28.5042 25.1971Z" fill="#F80C30"/>
<path d="M30.5558 25.1971C31.0913 25.1971 31.5366 24.7691 31.5366 24.2538C31.5366 23.6541 31.0913 23.2261 30.5558 23.2261C29.9301 23.2261 29.4849 23.6541 29.4849 24.2538C29.4849 24.7691 29.9301 25.1971 30.5558 25.1971Z" fill="#F80C30"/>
<path d="M8.34048 27.2553C8.87597 27.2553 9.3227 26.8259 9.3227 26.2262C9.3227 25.7123 8.87597 25.2829 8.34048 25.2829C7.71625 25.2829 7.271 25.7123 7.271 26.2262C7.271 26.8259 7.71625 27.2553 8.34048 27.2553Z" fill="#F80C30"/>
<path d="M10.3035 27.2553C10.9277 27.2553 11.3745 26.8259 11.3745 26.2262C11.3745 25.7123 10.9277 25.2829 10.3035 25.2829C9.76801 25.2829 9.32275 25.7123 9.32275 26.2262C9.32275 26.8259 9.76801 27.2553 10.3035 27.2553Z" fill="#F80C30"/>
<path d="M12.3552 27.2553C12.8907 27.2553 13.3375 26.8259 13.3375 26.2262C13.3375 25.7123 12.8907 25.2829 12.3552 25.2829C11.8198 25.2829 11.3745 25.7123 11.3745 26.2262C11.3745 26.8259 11.8198 27.2553 12.3552 27.2553Z" fill="#F80C30"/>
<path d="M14.4069 27.2553C14.9424 27.2553 15.3891 26.8259 15.3891 26.2262C15.3891 25.7123 14.9424 25.2829 14.4069 25.2829C13.7827 25.2829 13.3374 25.7123 13.3374 26.2262C13.3374 26.8259 13.7827 27.2553 14.4069 27.2553Z" fill="#F80C30"/>
<path d="M16.3699 27.2553C16.9941 27.2553 17.4409 26.8259 17.4409 26.2262C17.4409 25.7123 16.9941 25.2829 16.3699 25.2829C15.8344 25.2829 15.3892 25.7123 15.3892 26.2262C15.3892 26.8259 15.8344 27.2553 16.3699 27.2553Z" fill="#F80C30"/>
<path d="M18.4215 27.2553C18.957 27.2553 19.4038 26.8259 19.4038 26.2262C19.4038 25.7123 18.957 25.2829 18.4215 25.2829C17.8875 25.2829 17.3521 25.7123 17.3521 26.2262C17.3521 26.8259 17.8875 27.2553 18.4215 27.2553Z" fill="#F80C30"/>
<path d="M20.3845 27.2553C21.0088 27.2553 21.4555 26.8259 21.4555 26.2262C21.4555 25.7123 21.0088 25.2829 20.3845 25.2829C19.849 25.2829 19.4038 25.7123 19.4038 26.2262C19.4038 26.8259 19.849 27.2553 20.3845 27.2553Z" fill="#F80C30"/>
<path d="M22.4363 27.2553C22.9718 27.2553 23.5073 26.8259 23.5073 26.2262C23.5073 25.7123 22.9718 25.2829 22.4363 25.2829C21.9023 25.2829 21.4556 25.7123 21.4556 26.2262C21.4556 26.8259 21.9023 27.2553 22.4363 27.2553Z" fill="#F80C30"/>
<path d="M24.4894 27.2553C25.0234 27.2553 25.4702 26.8259 25.4702 26.2262C25.4702 25.7123 25.0234 25.2829 24.4894 25.2829C23.8637 25.2829 23.4185 25.7123 23.4185 26.2262C23.4185 26.8259 23.8637 27.2553 24.4894 27.2553Z" fill="#F80C30"/>
<path d="M26.4509 27.2553C27.0767 27.2553 27.5219 26.8259 27.5219 26.2262C27.5219 25.7123 27.0767 25.2829 26.4509 25.2829C25.9169 25.2829 25.4702 25.7123 25.4702 26.2262C25.4702 26.8259 25.9169 27.2553 26.4509 27.2553Z" fill="#F80C30"/>
<path d="M28.5042 27.2553C29.0382 27.2553 29.4849 26.8259 29.4849 26.2262C29.4849 25.7123 29.0382 25.2829 28.5042 25.2829C27.9687 25.2829 27.522 25.7123 27.522 26.2262C27.522 26.8259 27.9687 27.2553 28.5042 27.2553Z" fill="#F80C30"/>
<path d="M30.5558 27.2553C31.0913 27.2553 31.5366 26.8259 31.5366 26.2262C31.5366 25.7123 31.0913 25.2829 30.5558 25.2829C29.9316 25.2829 29.4849 25.7123 29.4849 26.2262C29.4849 26.8259 29.9316 27.2553 30.5558 27.2553Z" fill="#F80C30"/>
<path d="M8.34048 29.2263C8.87597 29.2263 9.3227 28.7984 9.3227 28.2831C9.3227 27.7692 8.87597 27.2554 8.34048 27.2554C7.71625 27.2554 7.271 27.7692 7.271 28.2831C7.271 28.7984 7.71625 29.2263 8.34048 29.2263Z" fill="#F80C30"/>
<path d="M10.3035 29.2263C10.9277 29.2263 11.3745 28.7984 11.3745 28.2831C11.3745 27.7692 10.9277 27.2554 10.3035 27.2554C9.76801 27.2554 9.32275 27.7692 9.32275 28.2831C9.32275 28.7984 9.76801 29.2263 10.3035 29.2263Z" fill="#F80C30"/>
<path d="M12.3552 29.2263C12.8907 29.2263 13.3375 28.7984 13.3375 28.2831C13.3375 27.7692 12.8907 27.2554 12.3552 27.2554C11.8212 27.2554 11.3745 27.7692 11.3745 28.2831C11.3745 28.7984 11.8212 29.2263 12.3552 29.2263Z" fill="#F80C30"/>
<path d="M14.4084 29.2263C14.9424 29.2263 15.3891 28.7984 15.3891 28.2831C15.3891 27.7692 14.9424 27.2554 14.4084 27.2554C13.7827 27.2554 13.3374 27.7692 13.3374 28.2831C13.3374 28.7984 13.7827 29.2263 14.4084 29.2263Z" fill="#F80C30"/>
<path d="M16.3699 29.2263C16.9956 29.2263 17.4409 28.7984 17.4409 28.2831C17.4409 27.7692 16.9956 27.2554 16.3699 27.2554C15.8359 27.2554 15.3892 27.7692 15.3892 28.2831C15.3892 28.7984 15.8359 29.2263 16.3699 29.2263Z" fill="#F80C30"/>
<path d="M18.423 29.2263C18.957 29.2263 19.4038 28.7984 19.4038 28.2831C19.4038 27.7692 18.957 27.2554 18.423 27.2554C17.8875 27.2554 17.3521 27.7692 17.3521 28.2831C17.3521 28.7984 17.8875 29.2263 18.423 29.2263Z" fill="#F80C30"/>
<path d="M20.3845 29.2263C21.0102 29.2263 21.4555 28.7984 21.4555 28.2831C21.4555 27.7692 21.0102 27.2554 20.3845 27.2554C19.8505 27.2554 19.4038 27.7692 19.4038 28.2831C19.4038 28.7984 19.8505 29.2263 20.3845 29.2263Z" fill="#F80C30"/>
<path d="M22.4378 29.2263C22.9718 29.2263 23.5073 28.7984 23.5073 28.2831C23.5073 27.7692 22.9718 27.2554 22.4378 27.2554C21.9023 27.2554 21.4556 27.7692 21.4556 28.2831C21.4556 28.7984 21.9023 29.2263 22.4378 29.2263Z" fill="#F80C30"/>
<path d="M24.4894 29.2263C25.0249 29.2263 25.4702 28.7984 25.4702 28.2831C25.4702 27.7692 25.0249 27.2554 24.4894 27.2554C23.8652 27.2554 23.4185 27.7692 23.4185 28.2831C23.4185 28.7984 23.8652 29.2263 24.4894 29.2263Z" fill="#F80C30"/>
<path d="M26.4524 29.2263C27.0767 29.2263 27.5219 28.7984 27.5219 28.2831C27.5219 27.7692 27.0767 27.2554 26.4524 27.2554C25.9169 27.2554 25.4702 27.7692 25.4702 28.2831C25.4702 28.7984 25.9169 29.2263 26.4524 29.2263Z" fill="#F80C30"/>
<path d="M28.5042 29.2263C29.0397 29.2263 29.4849 28.7984 29.4849 28.2831C29.4849 27.7692 29.0397 27.2554 28.5042 27.2554C27.9687 27.2554 27.522 27.7692 27.522 28.2831C27.522 28.7984 27.9687 29.2263 28.5042 29.2263Z" fill="#F80C30"/>
<path d="M30.5558 29.2263C31.0913 29.2263 31.5366 28.7984 31.5366 28.2831C31.5366 27.7692 31.0913 27.2554 30.5558 27.2554C29.9316 27.2554 29.4849 27.7692 29.4849 28.2831C29.4849 28.7984 29.9316 29.2263 30.5558 29.2263Z" fill="#F80C30"/>
<path d="M8.34048 31.2831C8.87597 31.2831 9.3227 30.8551 9.3227 30.2554C9.3227 29.7401 8.87597 29.3121 8.34048 29.3121C7.71625 29.3121 7.271 29.7401 7.271 30.2554C7.271 30.8551 7.71625 31.2831 8.34048 31.2831Z" fill="#F80C30"/>
<path d="M10.3035 31.2831C10.9277 31.2831 11.3745 30.8551 11.3745 30.2554C11.3745 29.7401 10.9277 29.3121 10.3035 29.3121C9.76801 29.3121 9.32275 29.7401 9.32275 30.2554C9.32275 30.8551 9.76801 31.2831 10.3035 31.2831Z" fill="#F80C30"/>
<path d="M12.3552 31.2831C12.8907 31.2831 13.3375 30.8551 13.3375 30.2554C13.3375 29.7401 12.8907 29.3121 12.3552 29.3121C11.8212 29.3121 11.3745 29.7401 11.3745 30.2554C11.3745 30.8551 11.8212 31.2831 12.3552 31.2831Z" fill="#F80C30"/>
<path d="M14.4084 31.2831C14.9424 31.2831 15.3891 30.8551 15.3891 30.2554C15.3891 29.7401 14.9424 29.3121 14.4084 29.3121C13.7827 29.3121 13.3374 29.7401 13.3374 30.2554C13.3374 30.8551 13.7827 31.2831 14.4084 31.2831Z" fill="#F80C30"/>
<path d="M16.3699 31.2831C16.9956 31.2831 17.4409 30.8551 17.4409 30.2554C17.4409 29.7401 16.9956 29.3121 16.3699 29.3121C15.8359 29.3121 15.3892 29.7401 15.3892 30.2554C15.3892 30.8551 15.8359 31.2831 16.3699 31.2831Z" fill="#F80C30"/>
<path d="M18.423 31.2831C18.957 31.2831 19.4038 30.8551 19.4038 30.2554C19.4038 29.7401 18.957 29.3121 18.423 29.3121C17.8875 29.3121 17.3521 29.7401 17.3521 30.2554C17.3521 30.8551 17.8875 31.2831 18.423 31.2831Z" fill="#F80C30"/>
<path d="M20.3845 31.2831C21.0102 31.2831 21.4555 30.8551 21.4555 30.2554C21.4555 29.7401 21.0102 29.3121 20.3845 29.3121C19.8505 29.3121 19.4038 29.7401 19.4038 30.2554C19.4038 30.8551 19.8505 31.2831 20.3845 31.2831Z" fill="#F80C30"/>
<path d="M22.4378 31.2831C22.9718 31.2831 23.5073 30.8551 23.5073 30.2554C23.5073 29.7401 22.9718 29.3121 22.4378 29.3121C21.9023 29.3121 21.4556 29.7401 21.4556 30.2554C21.4556 30.8551 21.9023 31.2831 22.4378 31.2831Z" fill="#F80C30"/>
<path d="M24.4894 31.2831C25.0249 31.2831 25.4702 30.8551 25.4702 30.2554C25.4702 29.7401 25.0249 29.3121 24.4894 29.3121C23.8652 29.3121 23.4185 29.7401 23.4185 30.2554C23.4185 30.8551 23.8652 31.2831 24.4894 31.2831Z" fill="#F80C30"/>
<path d="M26.4524 31.2831C27.0767 31.2831 27.5219 30.8551 27.5219 30.2554C27.5219 29.7401 27.0767 29.3121 26.4524 29.3121C25.9169 29.3121 25.4702 29.7401 25.4702 30.2554C25.4702 30.8551 25.9169 31.2831 26.4524 31.2831Z" fill="#F80C30"/>
<path d="M28.5042 31.2831C29.0397 31.2831 29.4849 30.8551 29.4849 30.2554C29.4849 29.7401 29.0397 29.3121 28.5042 29.3121C27.9687 29.3121 27.522 29.7401 27.522 30.2554C27.522 30.8551 27.9687 31.2831 28.5042 31.2831Z" fill="#F80C30"/>
<path d="M30.5558 31.2831C31.0913 31.2831 31.5366 30.8551 31.5366 30.2554C31.5366 29.7401 31.0913 29.3121 30.5558 29.3121C29.9316 29.3121 29.4849 29.7401 29.4849 30.2554C29.4849 30.8551 29.9316 31.2831 30.5558 31.2831Z" fill="#F80C30"/>
<mask id="mask0_2005_2223" style="mask-type:luminance" maskUnits="userSpaceOnUse" x="0" y="0" width="42" height="37">
<path d="M0.62207 0.765015H41.1413V36.922H0.62207V0.765015Z" fill="white"/>
</mask>
<g mask="url(#mask0_2005_2223)">
<path d="M33.4996 0.680603V6.76674C30.1092 2.99511 25.1138 0.680603 19.4927 0.680603C9.14399 0.680603 0.669434 8.82507 0.669434 18.7687C0.669434 28.7983 9.14399 36.8554 19.4927 36.8554C25.1138 36.8554 30.1092 34.5409 33.4996 30.8551V36.7695H40.9047V0.680603H33.4996ZM19.4927 30.3413C12.8021 30.3413 7.44878 25.1969 7.44878 18.7687C7.44878 12.4249 12.8021 7.19618 19.4927 7.19618C26.1848 7.19618 31.5367 12.4249 31.5367 18.7687C31.5367 25.1969 26.1848 30.3413 19.4927 30.3413Z" fill="#00423A"/>
</g>
<path d="M42.6885 34.455C42.6885 35.8263 43.8482 36.9413 45.2757 36.9413C46.7031 36.9413 47.8628 35.8263 47.8628 34.455C47.8628 33.0838 46.7031 31.9688 45.2757 31.9688C43.8482 31.9688 42.6885 33.0838 42.6885 34.455ZM42.9562 34.455C42.9562 33.2556 43.9384 32.2264 45.2757 32.2264C46.5256 32.2264 47.5951 33.2556 47.5951 34.455C47.5951 35.7404 46.5256 36.7696 45.2757 36.7696C43.9384 36.7696 42.9562 35.7404 42.9562 34.455Z" fill="#00423A"/>
<path d="M44.6514 33.426C44.6514 33.3416 44.7401 33.2557 44.9191 33.2557C45.0981 33.2557 45.6336 33.3416 45.6336 33.8554C45.6336 34.4551 45.0079 34.4551 44.6514 34.4551V33.426ZM46.6143 35.7405C46.4353 35.7405 46.3466 35.6561 46.2578 35.5702L45.3658 34.541C45.5434 34.541 46.1676 34.3693 46.1676 33.8554C46.1676 33.2557 45.4546 33.1698 45.0981 33.1698H43.8481V33.2557C44.2061 33.2557 44.2061 33.2557 44.2061 33.5978V35.3125C44.2061 35.6561 44.2061 35.7405 43.8481 35.7405V35.8264H45.0981V35.7405C44.7401 35.7405 44.6514 35.6561 44.6514 35.3984V34.6269H44.9191L45.8998 35.8264H46.6143V35.7405Z" fill="#00423A"/>
<mask id="mask1_2005_2223" style="mask-type:luminance" maskUnits="userSpaceOnUse" x="0" y="38" width="8" height="10">
<path d="M0.136719 38.8176H7.81692V47.9157H0.136719V38.8176Z" fill="white"/>
</mask>
<g mask="url(#mask1_2005_2223)">
<path d="M2.36437 44.227L3.79183 40.8848L5.30805 44.227H2.36437ZM0.0449219 47.6565H0.846669L2.00787 44.9141H5.57579L6.73551 47.6565H7.53874L3.79183 39.0841L0.0449219 47.6565Z" fill="#00423A"/>
</g>
<path d="M15.7459 46.885C15.3006 47.2286 14.8539 47.4848 14.3184 47.6566C13.7844 47.8283 13.2489 47.8283 12.7134 47.8283C11.4635 47.8283 10.4827 47.4848 9.59076 46.6274C8.78754 45.8559 8.34229 44.8282 8.34229 43.4555C8.34229 42.256 8.78754 41.2268 9.59076 40.3695C10.394 39.5135 11.3747 39.0841 12.7134 39.0841C13.2489 39.0841 13.7844 39.17 14.2297 39.2559C14.7651 39.4277 15.2119 39.6839 15.7459 40.0274V40.9707C15.2119 40.5412 14.7651 40.1992 14.2297 40.0274C13.6942 39.8556 13.2489 39.7697 12.7134 39.7697C11.7312 39.7697 10.9295 40.1133 10.215 40.8848C9.59076 41.5704 9.23427 42.4278 9.23427 43.4555C9.23427 44.5705 9.59076 45.4279 10.215 46.1135C10.9295 46.7991 11.7312 47.2286 12.7134 47.2286C13.2489 47.2286 13.7844 47.0568 14.3184 46.885C14.8539 46.7133 15.3006 46.3712 15.7459 46.0276V46.885Z" fill="#00423A"/>
<path d="M17.9766 43.1133V39.9414H19.0475C19.583 39.9414 20.0283 40.1132 20.3862 40.285C20.7427 40.4552 20.9202 40.8847 20.9202 41.5703C20.9202 41.9983 20.8315 42.4277 20.475 42.6839C20.2073 43.0274 19.583 43.1133 18.7798 43.1133H17.9766ZM17.1733 47.6565H17.9766V43.7989H18.2443L21.188 47.6565H22.08L19.1363 43.7989C20.1185 43.7989 20.8315 43.5413 21.188 43.1133C21.546 42.6839 21.8137 42.17 21.8137 41.5703C21.8137 40.7129 21.546 40.1132 21.0105 39.7696C20.475 39.4276 19.9395 39.3417 19.404 39.3417H17.1733V47.6565Z" fill="#00423A"/>
<path d="M24.8459 46.1135C24.1329 45.342 23.7749 44.4846 23.7749 43.4555C23.7749 42.4278 24.1329 41.5704 24.8459 40.8848C25.5603 40.1133 26.3621 39.7697 27.5218 39.7697C28.5928 39.7697 29.4847 40.1133 30.109 40.7989C30.8235 41.5704 31.18 42.4278 31.18 43.4555C31.18 44.4846 30.8235 45.342 30.109 46.1135C29.4847 46.7991 28.5928 47.2286 27.5218 47.2286C26.3621 47.2286 25.4701 46.7991 24.8459 46.1135ZM24.2216 40.3695C23.3296 41.2268 22.9731 42.256 22.9731 43.4555C22.9731 44.6564 23.3296 45.77 24.2216 46.6274C25.0248 47.4848 26.0943 47.8283 27.5218 47.8283C28.8605 47.8283 29.9315 47.3989 30.7347 46.5415C31.6267 45.77 32.0719 44.6564 32.0719 43.4555C32.0719 42.256 31.6267 41.2268 30.7347 40.3695C29.9315 39.5135 28.8605 39.0841 27.5218 39.0841C26.0943 39.0841 25.0248 39.5135 24.2216 40.3695Z" fill="#00423A"/>
<path d="M33.7671 38.9982L40.1012 45.9417V39.3417H40.9044V48L34.5703 41.0565V47.6565H33.7671V38.9982Z" fill="#00423A"/>
</svg>
