<svg width="82" height="40" viewBox="0 0 82 40" fill="none" xmlns="http://www.w3.org/2000/svg">
<path d="M31.5874 19.0622H40.3887V12.8878H31.5874V19.0622Z" fill="#294189"/>
<path d="M31.5874 6.34673H40.3887V0.172363H31.5874V6.34673Z" fill="#294189"/>
<path d="M41.5801 6.34673H50.3814V0.172363H41.5801V6.34673Z" fill="#294189"/>
<path d="M41.5801 19.0622H50.3814V12.8878H41.5801V19.0622Z" fill="#294189"/>
<path d="M52.5323 12.3858C51.7382 13.9201 49.9846 14.0481 47.9464 14.0481L30.2841 14.0508C29.1525 14.0508 27.7695 14.0634 26.5981 14.5689C26.7106 14.2755 26.8364 13.9408 26.9687 13.58H26.9753C27.7496 12.0504 29.4172 11.9291 31.515 11.9291L49.1772 11.9238C50.2625 11.9238 51.6853 11.9231 52.8963 11.391C52.7242 11.8737 52.5455 12.3425 52.5323 12.3858Z" fill="#5BB6D7"/>
<path d="M53.7762 9.01991C52.9887 10.5542 51.235 10.6842 49.1902 10.6842L31.528 10.6889C30.403 10.6889 29.0199 10.6962 27.8486 11.2049C27.9611 10.9082 28.0869 10.5782 28.2192 10.2141V10.2154C29.0001 8.68585 30.6677 8.56383 32.7655 8.56383L50.4277 8.5605C51.513 8.5605 52.9358 8.55584 54.1468 8.02441C53.9681 8.5085 53.796 8.97991 53.7762 9.01991Z" fill="#5BB6D7"/>
<path d="M55.0267 5.65403C54.2326 7.19028 52.4855 7.31831 50.4407 7.31831L32.7785 7.32164C31.6535 7.32164 30.2704 7.33231 29.0991 7.84106C29.2116 7.54635 29.3307 7.21229 29.4697 6.8509V6.85223C30.2506 5.32063 31.9116 5.20128 34.0093 5.20128L51.6782 5.19395C52.7569 5.19395 54.1862 5.19195 55.3973 4.66187C55.212 5.14595 55.0465 5.61203 55.0267 5.65403Z" fill="#5BB6D7"/>
<path d="M6.76379 28.895H10.8217V39.5748H6.76379V35.6375H4.05457V39.5748H0V28.895H4.05457V32.587H6.76379V28.895Z" fill="#294189"/>
<path d="M17.7835 31.2763C19.3188 31.2763 19.418 33.1206 19.418 34.2361C19.418 35.3497 19.3188 37.194 17.7835 37.194C16.2549 37.194 16.149 35.3497 16.149 34.2361C16.149 33.1206 16.2549 31.2763 17.7835 31.2763ZM17.7835 28.7152C14.0446 28.7152 11.8833 30.8329 11.8833 34.2361C11.8833 37.6374 14.0446 39.7584 17.7835 39.7584C21.5224 39.7584 23.693 37.6374 23.693 34.2361C23.693 30.8329 21.5224 28.7152 17.7835 28.7152Z" fill="#294189"/>
<path d="M28.5963 31.062H29.6418C30.7602 31.062 31.0845 31.6415 31.0845 32.0836C31.0845 32.3923 30.9389 33.1204 29.5492 33.1204H28.5963V31.062ZM24.7515 28.895V39.5748H30.9058C32.2558 39.5748 35.2866 39.4208 35.2866 36.7217C35.2866 35.0427 33.9499 34.3406 32.891 34.1912V34.1259C34.2146 33.8819 35.0418 32.891 35.0418 31.6715C35.0418 30.68 34.4396 28.895 31.1242 28.895H24.7515ZM28.5963 35.2267H29.536C29.8867 35.2267 31.1374 35.2267 31.1374 36.3069C31.1374 36.6937 30.9256 37.4078 29.622 37.4078H28.5963V35.2267Z" fill="#294189"/>
<path d="M41.9904 31.4288L43.0956 34.7687H40.839L41.9309 31.4288H41.9904ZM39.3103 28.895L35.6045 39.5748H39.661L40.3691 37.2691H43.5522L44.2801 39.5748H48.5484L44.7764 28.895H39.3103Z" fill="#294189"/>
<path d="M58.402 28.895V32.0569H54.8285V39.5748H50.7719V32.0569H47.2051V28.895H58.402Z" fill="#294189"/>
<path d="M64.9997 33.0753C64.8211 32.5252 64.2784 31.3823 62.2336 31.3823C61.8696 31.3823 60.8704 31.4443 59.8579 31.8704V29.0479L60.0829 29.0013C61.3402 28.7439 62.1873 28.7152 62.7895 28.7152C68.1828 28.7152 69.2284 32.1471 69.2284 34.2361C69.2284 36.9046 67.435 39.7584 62.902 39.7584C61.777 39.7584 60.6917 39.541 59.8579 39.3297V36.4938C61.1086 36.9813 62.141 36.9813 62.3263 36.9813C64.4836 36.9813 64.927 35.5344 64.9997 35.2576H61.3402V33.0753H64.9997Z" fill="#294189"/>
<path d="M74.4955 33.0904H74.5551L77.0499 28.895H81.6689L78.0955 33.9005L81.9998 39.5748H77.1558L74.5551 35.0427H74.4955V39.5748H70.439V28.895H74.4955V33.0904Z" fill="#294189"/>
</svg>
