<svg width="36" height="36" viewBox="0 0 36 36" fill="none" xmlns="http://www.w3.org/2000/svg">
<rect width="36" height="36" rx="4" fill="#FFC600"/>
<path d="M14.25 26.25C14.6642 26.25 15 25.9142 15 25.5C15 25.0858 14.6642 24.75 14.25 24.75C13.8358 24.75 13.5 25.0858 13.5 25.5C13.5 25.9142 13.8358 26.25 14.25 26.25Z" stroke="#0C1618" stroke-width="1.6" stroke-linecap="round" stroke-linejoin="round"/>
<path d="M24.75 26.25C25.1642 26.25 25.5 25.9142 25.5 25.5C25.5 25.0858 25.1642 24.75 24.75 24.75C24.3358 24.75 24 25.0858 24 25.5C24 25.9142 24.3358 26.25 24.75 26.25Z" stroke="#0C1618" stroke-width="1.6" stroke-linecap="round" stroke-linejoin="round"/>
<path d="M8.25 9.75H11.25L13.5 22.5H25.5" stroke="#0C1618" stroke-width="1.6" stroke-linecap="round" stroke-linejoin="round"/>
<path d="M13.5 19.5H25.1925C25.2792 19.5001 25.3633 19.4701 25.4304 19.4151C25.4975 19.3601 25.5434 19.2836 25.5605 19.1986L26.9105 12.4486C26.9214 12.3942 26.92 12.338 26.9066 12.2841C26.8931 12.2303 26.8679 12.1801 26.8327 12.1372C26.7975 12.0943 26.7532 12.0597 26.703 12.036C26.6528 12.0122 26.598 12 26.5425 12H12" stroke="#0C1618" stroke-width="1.6" stroke-linecap="round" stroke-linejoin="round"/>
</svg>
