<svg width="36" height="36" viewBox="0 0 36 36" fill="none" xmlns="http://www.w3.org/2000/svg">
<rect width="36" height="36" rx="4" fill="#FFC600"/>
<path d="M27.5999 15.9128C27.6003 15.6513 27.5317 15.3943 27.401 15.1681C27.2704 14.9418 27.0823 14.7542 26.856 14.6245L18.7691 9.80845C18.536 9.672 18.271 9.6001 18.0012 9.6001C17.7313 9.6001 17.4664 9.672 17.2333 9.80845L9.13436 14.6245C8.91056 14.7578 8.72516 14.9472 8.59639 15.1741C8.46762 15.4011 8.3999 15.6577 8.3999 15.9189C8.3999 16.18 8.46762 16.4367 8.59639 16.6636C8.72516 16.8905 8.91056 17.0799 9.13436 17.2132L11.4381 18.5617V21.945C11.4394 22.2094 11.5086 22.469 11.6389 22.6989C11.7692 22.9287 11.9562 23.121 12.182 23.2574L17.2813 26.2072C17.509 26.3337 17.7649 26.4001 18.0252 26.4001C18.2854 26.4001 18.5414 26.3337 18.7691 26.2072L23.8684 23.2574C24.0942 23.121 24.2812 22.9287 24.4115 22.6989C24.5418 22.469 24.6109 22.2094 24.6123 21.945V18.5256L26.1001 17.6466V20.9216H27.5999V15.9128ZM23.1245 21.933L18.0012 24.8949L12.9379 21.945V19.4527L17.2333 22.0172C17.4671 22.1513 17.7318 22.2219 18.0012 22.2219C18.2705 22.2219 18.5352 22.1513 18.7691 22.0172L23.1125 19.4166L23.1245 21.933ZM18.0012 20.7169L9.90226 15.9008L18.0012 11.0727L26.1001 15.8888L18.0012 20.7169Z" fill="#0C1618"/>
</svg>
