<svg width="36" height="36" viewBox="0 0 36 36" fill="none" xmlns="http://www.w3.org/2000/svg">
<rect width="36" height="36" rx="4" fill="#FFC600"/>
<path d="M14.2668 14.4H12.5868C11.5414 14.4 11.0188 14.4 10.6193 14.5962C10.2681 14.7688 9.98253 15.0442 9.80356 15.3828C9.6001 15.768 9.6001 16.272 9.6001 17.28V22.32C9.6001 23.328 9.6001 23.832 9.80356 24.2172C9.98253 24.5559 10.2681 24.8313 10.6193 25.0038C11.0178 25.2 11.5405 25.2 12.584 25.2H23.4162C24.4597 25.2 24.9814 25.2 25.38 25.0038C25.7318 24.831 26.0174 24.5556 26.1966 24.2172C26.4001 23.832 26.4001 23.3298 26.4001 22.3236V17.2773C26.4001 16.2711 26.4001 15.7671 26.1966 15.3828C26.0174 15.044 25.7315 14.7687 25.38 14.5962C24.9814 14.4 24.4588 14.4 23.4134 14.4H21.7334M14.2668 14.4H21.7334M14.2668 14.4C14.2668 13.4453 14.6601 12.5296 15.3602 11.8545C16.0604 11.1793 17.01 10.8 18.0001 10.8C18.9902 10.8 19.9398 11.1793 20.64 11.8545C21.3401 12.5296 21.7334 13.4453 21.7334 14.4" stroke="#0C1618" stroke-width="1.6" stroke-linecap="round" stroke-linejoin="round"/>
</svg>
