<svg width="36" height="36" viewBox="0 0 36 36" fill="none" xmlns="http://www.w3.org/2000/svg">
<rect width="36" height="36" rx="4" fill="#FFC600"/>
<path d="M18.8235 20.7907V13.8449M18.8235 20.7907L23.68 23.5212C23.8142 23.5966 23.9661 23.6361 24.1206 23.6355C24.2751 23.635 24.4268 23.5946 24.5605 23.5183C24.6941 23.442 24.8051 23.3325 24.8822 23.2008C24.9593 23.069 25 22.9196 25 22.7676V11.8679C25 11.7159 24.9593 11.5665 24.8822 11.4348C24.8051 11.3031 24.6941 11.1936 24.5605 11.1173C24.4268 11.0409 24.2751 11.0005 24.1206 11C23.9661 10.9995 23.8142 11.0389 23.68 11.1143L18.8235 13.8449M18.8235 20.7907H16.1765M18.8235 13.8449H13.5294C12.5934 13.8449 11.6956 14.2108 11.0337 14.8621C10.3718 15.5134 10 16.3967 10 17.3178C10 18.2388 10.3718 19.1222 11.0337 19.7735C11.6956 20.4248 12.5934 20.7907 13.5294 20.7907M16.1765 20.7907V24.6977C16.1765 25.0431 16.037 25.3743 15.7888 25.6186C15.5406 25.8628 15.204 26 14.8529 26C14.5019 26 14.1653 25.8628 13.9171 25.6186C13.6689 25.3743 13.5294 25.0431 13.5294 24.6977V20.7907M16.1765 20.7907H13.5294" stroke="#0C1618" stroke-width="1.6" stroke-linecap="round" stroke-linejoin="round"/>
</svg>
