<svg width="36" height="36" viewBox="0 0 36 36" fill="none" xmlns="http://www.w3.org/2000/svg">
<rect width="36" height="36" rx="4" fill="#FFC600"/>
<path d="M13.0769 18.0004V14.7636C13.0865 14.1274 13.2216 13.4993 13.4744 12.9153C13.7272 12.3314 14.0927 11.8031 14.55 11.3606C15.0074 10.9182 15.5475 10.5703 16.1395 10.337C16.7315 10.1036 17.3638 9.98937 18 10.0008C18.6362 9.98937 19.2685 10.1036 19.8605 10.337C20.4525 10.5703 20.9926 10.9182 21.45 11.3606C21.9073 11.8031 22.2728 12.3314 22.5256 12.9153C22.7784 13.4993 22.9135 14.1274 22.9231 14.7636V18.0004M20.4615 24.4616C21.1144 24.4616 21.7405 24.2023 22.2021 23.7407C22.6637 23.2791 22.9231 22.653 22.9231 22.0002V19.2311M20.4615 24.4616C20.4615 24.8696 20.2995 25.2609 20.0109 25.5494C19.7224 25.8379 19.3311 26 18.9231 26H17.0769C16.6689 26 16.2776 25.8379 15.9891 25.5494C15.7005 25.2609 15.5385 24.8696 15.5385 24.4616C15.5385 24.0536 15.7005 23.6623 15.9891 23.3738C16.2776 23.0853 16.6689 22.9232 17.0769 22.9232H18.9231C19.3311 22.9232 19.7224 23.0853 20.0109 23.3738C20.2995 23.6623 20.4615 24.0536 20.4615 24.4616ZM11.2308 16.1543H12.4615C12.6247 16.1543 12.7813 16.2192 12.8967 16.3346C13.0121 16.45 13.0769 16.6065 13.0769 16.7697V20.4618C13.0769 20.625 13.0121 20.7815 12.8967 20.8969C12.7813 21.0123 12.6247 21.0772 12.4615 21.0772H11.2308C10.9043 21.0772 10.5913 20.9475 10.3605 20.7167C10.1297 20.4859 10 20.1729 10 19.8465V17.385C10 17.0586 10.1297 16.7456 10.3605 16.5148C10.5913 16.284 10.9043 16.1543 11.2308 16.1543ZM24.7692 21.0772H23.5385C23.3753 21.0772 23.2187 21.0123 23.1033 20.8969C22.9879 20.7815 22.9231 20.625 22.9231 20.4618V16.7697C22.9231 16.6065 22.9879 16.45 23.1033 16.3346C23.2187 16.2192 23.3753 16.1543 23.5385 16.1543H24.7692C25.0957 16.1543 25.4087 16.284 25.6395 16.5148C25.8703 16.7456 26 17.0586 26 17.385V19.8465C26 20.1729 25.8703 20.4859 25.6395 20.7167C25.4087 20.9475 25.0957 21.0772 24.7692 21.0772Z" stroke="#0C1618" stroke-width="1.6" stroke-linecap="round" stroke-linejoin="round"/>
</svg>
