<svg width="90" height="90" viewBox="0 0 90 90" fill="none" xmlns="http://www.w3.org/2000/svg">
<path opacity="0.05" d="M44.0931 0C50.3117 0 55.6667 0.555556 60.1579 1.66667C64.6491 2.69231 68.1471 4.70085 70.6518 7.69231C73.1565 10.6838 74.4089 15 74.4089 20.641C74.4089 23.9744 73.9771 27.094 73.1134 30C72.336 32.8205 70.8677 35.7692 68.7085 38.8462C66.6356 41.9231 63.6127 45.5556 59.6397 49.7436L36.1903 73.7179C38.3495 73.3761 40.5088 73.1624 42.668 73.0769C44.9136 72.906 47.1592 72.8205 49.4049 72.8205H77V90H13V79.4872C13 77.9487 13.2159 76.5385 13.6478 75.2564C14.0796 73.8889 14.7706 72.6496 15.7206 71.5385L38.004 47.9487C43.2726 42.5641 47.2888 37.7778 50.0526 33.5897C52.9028 29.4017 54.2847 25.7692 54.1984 22.6923C54.112 20.812 53.5938 19.4444 52.6437 18.5897C51.78 17.735 50.4413 17.1795 48.6275 16.9231C46.8138 16.6667 44.5681 16.5385 41.8907 16.5385C38.8677 16.5385 36.0175 16.5812 33.3401 16.6667C30.749 16.6667 27.942 16.7521 24.919 16.9231C21.9825 17.094 18.5277 17.3504 14.5547 17.6923L13.7773 3.07692C18.0094 2.13675 21.8097 1.45299 25.1781 1.02564C28.6329 0.598288 31.8718 0.341876 34.8947 0.256407C38.004 0.085469 41.0702 0 44.0931 0Z" fill="#0C1618"/>
</svg>
