<svg width="90" height="90" viewBox="0 0 90 90" fill="none" xmlns="http://www.w3.org/2000/svg">
<path opacity="0.05" d="M44.1525 0C51.2574 0 56.9327 0.626743 61.1783 1.88023C65.5105 3.05014 68.6297 5.0975 70.5359 8.02229C72.5288 10.9471 73.5252 15 73.5252 20.1811C73.5252 24.1922 73.1353 27.7437 72.3555 30.8357C71.5757 33.844 70.1894 36.3092 68.1965 38.2312C66.2037 40.1532 63.3444 41.4067 59.6187 41.9916V42.493C65.7705 43.4123 70.0161 45.6685 72.3555 49.2618C74.6949 52.8552 75.9079 57.8273 75.9946 64.1783C76.0812 70.195 75.1281 75.1254 73.1353 78.9694C71.1425 82.7298 67.8499 85.5293 63.2578 87.3677C58.7522 89.1226 52.687 90 45.0623 90C39.8636 90 34.6215 89.7493 29.3362 89.2479C24.0508 88.8301 18.9388 88.2869 14 87.6184L14.7798 73.5794C18.2456 73.8301 21.3215 74.039 24.0075 74.2061C26.7802 74.2897 29.4228 74.3733 31.9355 74.4568C34.4482 74.5404 37.0043 74.5822 39.6036 74.5822C43.8492 74.5822 47.1851 74.2479 49.6111 73.5794C52.0372 72.8273 53.7701 71.532 54.8099 69.6936C55.8496 67.7716 56.3695 65.0975 56.3695 61.6713C56.3695 58.9972 55.9796 56.7827 55.1998 55.0279C54.5066 53.1894 53.1636 51.8106 51.1708 50.8914C49.1779 49.8886 46.2753 49.429 42.4629 49.5125L25.4372 49.6379V36.9777H42.4629C45.3222 36.9777 47.575 36.6852 49.2212 36.1003C50.8675 35.4318 52.0805 34.5961 52.8603 33.5933C53.7268 32.507 54.29 31.2535 54.5499 29.8329C54.8099 28.4123 54.9398 26.8663 54.9398 25.195C54.8532 22.4373 54.3766 20.3482 53.5102 18.9276C52.7304 17.507 51.3007 16.546 49.2212 16.0446C47.2284 15.5432 44.4124 15.2925 40.7733 15.2925C36.2678 15.2925 31.8922 15.376 27.6466 15.5432C23.4876 15.6267 19.8052 15.7103 16.5994 15.7939L15.6896 2.38161C20.5417 1.54596 25.3072 0.961003 29.986 0.62674C34.7515 0.208913 39.4737 0 44.1525 0Z" fill="#0C1618"/>
</svg>
